<?xml version="1.0"?>
<svg xmlns="http://www.w3.org/2000/svg" width="35" height="41" viewBox="0 0 35 41">
  <defs>
    <linearGradient id="globe-icon-a" x1="49.963%" x2="49.963%" y1="1.851%" y2="99.243%">
      <stop offset="0%" stop-color="#0069FF" stop-opacity=".3"/>
      <stop offset="100%" stop-color="#0069FF" stop-opacity="0"/>
    </linearGradient>
  </defs>
  <g fill="none" fill-rule="evenodd" transform="translate(1 1)">
    <circle cx="16.485" cy="22.815" r="16.185" fill="url(#globe-icon-a)"/>
    <ellipse cx="16.485" cy="22.815" fill="#FFF" rx="16.185" ry="6.143"/>
    <path stroke="#0069FF" stroke-width="2" d="M0.3,22.815 C0.3,19.402 7.515,16.672 16.485,16.672 C25.455,16.672 32.67,19.402 32.67,22.815" opacity=".4"/>
    <path stroke="#0069FF" stroke-width="2" d="M16.485,39 C13.073,39 10.343,31.785 10.343,22.815 C10.343,13.845 13.073,6.63 16.485,6.63" opacity=".4"/>
    <path stroke="#0069FF" stroke-width="2" d="M32.67,22.815 C32.67,26.227 25.455,28.957 16.485,28.957 C7.515,28.957 0.3,26.227 0.3,22.816"/>
    <path stroke="#0069FF" stroke-width="2" d="M16.485,6.63 C19.898,6.63 22.628,13.845 22.628,22.815 C22.628,31.785 19.898,39 16.485,39"/>
    <circle cx="16.485" cy="22.815" r="16.185" stroke="#0069FF" stroke-width="2"/>
    <g stroke="#120078" stroke-width="2" transform="translate(9.075)">
      <path fill="#FFF" d="M14.332,6.923 C14.332,12.09 7.41,17.16 7.41,17.16 C7.41,17.16 0.487,11.895 0.487,6.922 C0.487,3.12 3.607,0 7.41,0 C11.213,0 14.332,3.12 14.332,6.923 Z"/>
      <circle cx="7.41" cy="7.02" r="2.34"/>
    </g>
  </g>
</svg>
