<?xml version="1.0" encoding="UTF-8"?>
<svg width="39px" height="39px" viewBox="0 0 39 39" version="1.1" xmlns="http://www.w3.org/2000/svg" xmlns:xlink="http://www.w3.org/1999/xlink">
    <!-- Generator: Sketch 50.1 (55044) - http://www.bohemiancoding.com/sketch -->
    <title>SSDs-01</title>
    <desc>Created with Sketch.</desc>
    <defs>
        <linearGradient x1="100.265181%" y1="49.9921348%" x2="43.5130919%" y2="49.9921348%" id="linearGradient-1">
            <stop stop-color="#0069FF" stop-opacity="0.3" offset="0%"></stop>
            <stop stop-color="#0069FF" stop-opacity="0" offset="100%"></stop>
        </linearGradient>
        <linearGradient x1="100.265181%" y1="50.5617978%" x2="43.5130919%" y2="50.5617978%" id="linearGradient-2">
            <stop stop-color="#0069FF" stop-opacity="0.3" offset="0%"></stop>
            <stop stop-color="#0069FF" stop-opacity="0" offset="100%"></stop>
        </linearGradient>
        <linearGradient x1="100.265181%" y1="50.0078652%" x2="43.5130919%" y2="50.0078652%" id="linearGradient-3">
            <stop stop-color="#0069FF" stop-opacity="0.3" offset="0%"></stop>
            <stop stop-color="#0069FF" stop-opacity="0" offset="100%"></stop>
        </linearGradient>
    </defs>
    <g id="Page-1" stroke="none" stroke-width="1" fill="none" fill-rule="evenodd">
        <g id="Price-to-Performance-V3" transform="translate(-931.000000, -4759.000000)">
            <g id="features" transform="translate(215.000000, 4261.000000)">
                <g id="Group-13" transform="translate(0.000000, 112.000000)">
                    <g id="enterprise-ssds" transform="translate(600.000000, 295.000000)">
                        <g id="SSDs-01" transform="translate(117.000000, 92.000000)">
                            <g id="Group">
                                <path d="M33.9,27.6 L3.1,27.6 C1.7,27.6 0.6,28.7 0.6,30.1 L0.6,34 C0.6,35.4 1.7,36.5 3.1,36.5 L34,36.5 C35.4,36.5 36.5,35.4 36.5,34 L36.5,30.1 C36.4,28.7 35.3,27.6 33.9,27.6 Z" id="Shape" fill="url(#linearGradient-1)" fill-rule="nonzero"></path>
                                <path d="M33.9,27.6 L3.1,27.6 C1.7,27.6 0.6,28.7 0.6,30.1 L0.6,34 C0.6,35.4 1.7,36.5 3.1,36.5 L34,36.5 C35.4,36.5 36.5,35.4 36.5,34 L36.5,30.1 C36.4,28.7 35.3,27.6 33.9,27.6 Z" id="Shape" stroke="#120078" stroke-width="2"></path>
                                <circle id="Oval" fill="#0069FF" fill-rule="nonzero" cx="6.2" cy="32" r="1.3"></circle>
                                <circle id="Oval" fill="#0069FF" fill-rule="nonzero" opacity="0.3" cx="10.6" cy="32" r="1.3"></circle>
                                <circle id="Oval" fill="#0069FF" fill-rule="nonzero" opacity="0.3" cx="14.9" cy="32" r="1.3"></circle>
                                <path d="M31.8,32 L24.2,32" id="Shape" stroke="#0069FF" stroke-width="2"></path>
                                <path d="M33.9,14 L3.1,14 C1.7,14 0.6,15.1 0.6,16.5 L0.6,20.4 C0.6,21.8 1.7,22.9 3.1,22.9 L34,22.9 C35.4,22.9 36.5,21.8 36.5,20.4 L36.5,16.5 C36.4,15.2 35.3,14 33.9,14 Z" id="Shape" fill="url(#linearGradient-2)" fill-rule="nonzero"></path>
                                <path d="M33.9,14 L3.1,14 C1.7,14 0.6,15.1 0.6,16.5 L0.6,20.4 C0.6,21.8 1.7,22.9 3.1,22.9 L34,22.9 C35.4,22.9 36.5,21.8 36.5,20.4 L36.5,16.5 C36.4,15.2 35.3,14 33.9,14 Z" id="Shape" stroke="#120078" stroke-width="2"></path>
                                <circle id="Oval" fill="#0069FF" fill-rule="nonzero" cx="6.2" cy="18.5" r="1.3"></circle>
                                <circle id="Oval" fill="#0069FF" fill-rule="nonzero" opacity="0.3" cx="10.6" cy="18.5" r="1.3"></circle>
                                <circle id="Oval" fill="#0069FF" fill-rule="nonzero" opacity="0.3" cx="14.9" cy="18.5" r="1.3"></circle>
                                <path d="M31.8,18.5 L24.2,18.5" id="Shape" stroke="#0069FF" stroke-width="2"></path>
                                <path d="M33.9,0.5 L3.1,0.5 C1.7,0.5 0.6,1.6 0.6,3 L0.6,6.9 C0.6,8.3 1.7,9.4 3.1,9.4 L34,9.4 C35.4,9.4 36.5,8.3 36.5,6.9 L36.5,3 C36.4,1.6 35.3,0.5 33.9,0.5 Z" id="Shape" fill="url(#linearGradient-3)" fill-rule="nonzero"></path>
                                <path d="M33.9,0.5 L3.1,0.5 C1.7,0.5 0.6,1.6 0.6,3 L0.6,6.9 C0.6,8.3 1.7,9.4 3.1,9.4 L34,9.4 C35.4,9.4 36.5,8.3 36.5,6.9 L36.5,3 C36.4,1.6 35.3,0.5 33.9,0.5 Z" id="Shape" stroke="#120078" stroke-width="2"></path>
                                <circle id="Oval" fill="#0069FF" fill-rule="nonzero" cx="6.2" cy="5" r="1.3"></circle>
                                <circle id="Oval" fill="#0069FF" fill-rule="nonzero" opacity="0.3" cx="10.6" cy="5" r="1.3"></circle>
                                <circle id="Oval" fill="#0069FF" fill-rule="nonzero" opacity="0.3" cx="14.9" cy="5" r="1.3"></circle>
                                <path d="M31.8,5 L24.2,5" id="Shape" stroke="#0069FF" stroke-width="2"></path>
                            </g>
                        </g>
                    </g>
                </g>
            </g>
        </g>
    </g>
</svg>