<?xml version="1.0"?>
<svg xmlns="http://www.w3.org/2000/svg" width="41" height="40" viewBox="0 0 41 40">
  <defs>
    <linearGradient id="droplet-icon-resize-a" x1="28.458%" x2="70.705%" y1="84.156%" y2="31.688%">
      <stop offset="0%" stop-color="#0069FF" stop-opacity=".3"/>
      <stop offset="100%" stop-color="#0069FF" stop-opacity="0"/>
    </linearGradient>
  </defs>
  <g fill="none" fill-rule="evenodd" transform="translate(1 1)">
    <path stroke="#0069FF" stroke-width="2" d="M15.4,37.6 L18.9,37.6 C26.354,37.594 32.394,31.554 32.4,24.1 C32.4,14.4 18.9,4.1 18.9,4.1 C18.9,4.1 5.4,14 5.4,24.1 L5.4,27.4"/>
    <path fill="url(#droplet-icon-resize-a)" d="M12.3,37.6000216 L14.7,37.6000216 C17.168142,37.605325 19.5367286,36.6272165 21.2819725,34.8819725 C23.0272165,33.1367286 24.005325,30.768142 24.0000216,28.3 C24.0000216,21.6 14.7,14.5 14.7,14.5 C14.7,14.5 5.4,21.3 5.4,28.3 L5.4,30.6"/>
    <path stroke="#0069FF" stroke-width="2" d="M16.3,37.5 C20.7572807,36.7050004 24.002477,32.8276229 24.0000014,28.3 C24.0000014,21.6 14.7,14.5 14.7,14.5 C14.7,14.5 7,20.1 5.6,26.4" opacity=".3"/>
    <path fill="#FFF" stroke="#120078" stroke-width="2" d="M5.4,32.9 C5.4,29.3 10.2,25.8 10.2,25.8 C10.2,25.8 15,29.4 15,32.9 C15,35.5509668 12.8509668,37.7 10.2,37.7 C7.5490332,37.7 5.4,35.5509668 5.4,32.9 Z"/>
    <path stroke="#120078" stroke-width="2" d="M33.4,0 L38.8,0 L38.8,5.4 M0,5.4 L0,0 L5.4,0 M38.8,31.4 L38.8,36.8 L33.4,36.8"/>
  </g>
</svg>
