<?xml version="1.0" encoding="UTF-8"?>
<svg width="41px" height="34px" viewBox="0 0 41 34" version="1.1" xmlns="http://www.w3.org/2000/svg" xmlns:xlink="http://www.w3.org/1999/xlink">
    <!-- Generator: Sketch 50.1 (55044) - http://www.bohemiancoding.com/sketch -->
    <title>DNS-01</title>
    <desc>Created with Sketch.</desc>
    <defs>
        <linearGradient x1="50.2335929%" y1="-0.67902439%" x2="50.2335929%" y2="94.1087805%" id="linearGradient-1">
            <stop stop-color="#0069FF" stop-opacity="0.6" offset="0%"></stop>
            <stop stop-color="#0069FF" stop-opacity="0" offset="100%"></stop>
        </linearGradient>
    </defs>
    <g id="Page-1" stroke="none" stroke-width="1" fill="none" fill-rule="evenodd">
        <g id="Price-to-Performance-V3" transform="translate(-1229.000000, -4469.000000)">
            <g id="features" transform="translate(215.000000, 4261.000000)">
                <g id="Group-13" transform="translate(0.000000, 112.000000)">
                    <g id="dns" transform="translate(900.000000, 0.000000)">
                        <g id="DNS-01" transform="translate(115.000000, 98.000000)">
                            <g id="Group">
                                <path d="M13,31 C6,31 0,25.2 0,18.2 C0,7.4 13,0 13,0 C13,0 26,7.5 26,18.1 C26.1,25.2 20.1,31 13,31 Z" id="Shape" stroke="#0069FF" stroke-width="2" fill="#FFFFFF" fill-rule="nonzero"></path>
                                <path d="M13,26.4 C8.3,26.4 4.4,22.6 4.4,17.9 C4.4,10.8 13,5.9 13,5.9 C13,5.9 21.6,10.9 21.6,17.9 C21.7,22.6 17.7,26.4 13,26.4 Z" id="Shape" fill="url(#linearGradient-1)" fill-rule="nonzero"></path>
                                <circle id="Oval" fill="#120078" fill-rule="nonzero" cx="20.4" cy="6.1" r="2.7"></circle>
                                <polyline id="Shape" stroke="#120078" stroke-width="2" points="20.6 6.2 26.7 0.1 40 0.1"></polyline>
                                <path d="M24.6,23.9 L40,23.9" id="Shape" stroke="#120078" stroke-width="2"></path>
                                <path d="M26.7,0.1 L40,0.1" id="Shape" stroke="#120078" stroke-width="2"></path>
                                <path d="M30.3,4.6 L40,4.6" id="Shape" stroke="#120078" stroke-width="2"></path>
                                <path d="M30.3,9.2 L40,9.2" id="Shape" stroke="#120078" stroke-width="2"></path>
                                <path d="M30.3,28.2 L40,28.2" id="Shape" stroke="#120078" stroke-width="2"></path>
                                <circle id="Oval" fill="#120078" fill-rule="nonzero" cx="24.6" cy="23.8" r="2.7"></circle>
                            </g>
                        </g>
                    </g>
                </g>
            </g>
        </g>
    </g>
</svg>