<?xml version="1.0" encoding="UTF-8"?>
<svg width="41px" height="41px" viewBox="0 0 41 41" version="1.1" xmlns="http://www.w3.org/2000/svg" xmlns:xlink="http://www.w3.org/1999/xlink">
    <!-- Generator: Sketch 50.1 (55044) - http://www.bohemiancoding.com/sketch -->
    <title>40GbE-01</title>
    <desc>Created with Sketch.</desc>
    <defs>
        <linearGradient x1="50%" y1="3.65314685%" x2="50%" y2="130.36014%" id="linearGradient-1">
            <stop stop-color="#0069FF" stop-opacity="0.5" offset="0%"></stop>
            <stop stop-color="#0069FF" stop-opacity="0" offset="100%"></stop>
        </linearGradient>
    </defs>
    <g id="Page-1" stroke="none" stroke-width="1" fill="none" fill-rule="evenodd">
        <g id="Price-to-Performance-V3" transform="translate(-630.000000, -4756.000000)" fill-rule="nonzero">
            <g id="features" transform="translate(215.000000, 4261.000000)">
                <g id="Group-13" transform="translate(0.000000, 112.000000)">
                    <g id="40GBE" transform="translate(300.000000, 295.000000)">
                        <g id="40GbE-01" transform="translate(115.000000, 88.000000)">
                            <g id="Group">
                                <g fill="#FFFFFF" id="Shape">
                                    <g transform="translate(0.000000, 13.000000)" stroke="#120078" stroke-width="2">
                                        <path d="M0,7.5 L41,7.5"></path>
                                        <path d="M0,14.8 L41,14.8"></path>
                                        <path d="M0,0.2 L41,0.2"></path>
                                    </g>
                                    <g transform="translate(13.000000, 0.000000)" stroke="#120078" stroke-width="2">
                                        <path d="M7.5,41 L7.5,0"></path>
                                        <path d="M14.8,41 L14.8,0"></path>
                                        <path d="M0.2,41 L0.2,0"></path>
                                    </g>
                                    <path d="M33.8,34.8 L7.2,34.8 C6.6,34.8 6.2,34.4 6.2,33.8 L6.2,7.2 C6.2,6.6 6.6,6.2 7.2,6.2 L33.8,6.2 C34.4,6.2 34.8,6.6 34.8,7.2 L34.8,33.8 C34.8,34.4 34.4,34.8 33.8,34.8 Z"></path>
                                </g>
                                <path d="M33.8,34.8 L7.2,34.8 C6.6,34.8 6.2,34.4 6.2,33.8 L6.2,7.2 C6.2,6.6 6.6,6.2 7.2,6.2 L33.8,6.2 C34.4,6.2 34.8,6.6 34.8,7.2 L34.8,33.8 C34.8,34.4 34.4,34.8 33.8,34.8 Z" id="Shape" fill="url(#linearGradient-1)"></path>
                                <path d="M14.4,22.6 C14.4,19.2 20.5,13 20.5,13 C20.5,13 26.6,19.2 26.6,22.6 C26.6,26 23.9,28.7 20.5,28.7 C17.1,28.7 14.4,26 14.4,22.6 Z" id="Shape" stroke="#0069FF" stroke-width="2" fill="#FFFFFF"></path>
                            </g>
                        </g>
                    </g>
                </g>
            </g>
        </g>
    </g>
</svg>