<?xml version="1.0" encoding="UTF-8"?>
<svg width="37px" height="38px" viewBox="0 0 37 38" version="1.1" xmlns="http://www.w3.org/2000/svg" xmlns:xlink="http://www.w3.org/1999/xlink">
    <!-- Generator: Sketch 59.1 (86144) - https://sketch.com -->
    <title>stacksplusicon</title>
    <desc>Created with Sketch.</desc>
    <defs>
        <linearGradient x1="11.123%" y1="109.271%" x2="80.386%" y2="3.434%" id="linearGradient-1">
            <stop stop-color="#0069FF" stop-opacity="0.6" offset="0%"></stop>
            <stop stop-color="#0069FF" stop-opacity="0" offset="100%"></stop>
        </linearGradient>
        <linearGradient x1="11.231%" y1="109.543%" x2="80.289%" y2="3.243%" id="linearGradient-2">
            <stop stop-color="#0069FF" stop-opacity="0.6" offset="0%"></stop>
            <stop stop-color="#0069FF" stop-opacity="0" offset="100%"></stop>
        </linearGradient>
    </defs>
    <g id="Page-1" stroke="none" stroke-width="1" fill="none" fill-rule="evenodd">
        <g id="stacksplusicon" transform="translate(1.000000, 1.000000)">
            <polygon id="Path" fill="url(#linearGradient-1)" fill-rule="nonzero" opacity="0.3" points="25.43 12.96 25.43 0.9 9.23 0.9 9.23 12.96"></polygon>
            <polygon id="Path" stroke="#0069FF" stroke-width="2" opacity="0.3" points="25.414 0.876 25.414 12.936 9.214 12.936 9.214 0.876"></polygon>
            <polygon id="Path" fill="#FFFFFF" fill-rule="nonzero" points="29.59 5.593 29.59 23.683 5.11 23.683 5.11 5.593"></polygon>
            <polygon id="Path" fill="url(#linearGradient-2)" fill-rule="nonzero" points="29.57 23.76 29.57 5.67 5.09 5.67 5.09 23.76"></polygon>
            <polygon id="Path" stroke="#0069FF" stroke-width="2" points="29.59 5.593 29.59 23.683 5.11 23.683 5.11 5.593"></polygon>
            <polygon id="Path" stroke="#120078" stroke-width="2" fill="#FFFFFF" fill-rule="nonzero" points="0.522 35.985 0.522 10.785 34.182 10.785 34.182 35.985"></polygon>
            <g id="Group" transform="translate(12.000000, 18.000000)" stroke="#120078" stroke-width="2">
                <path d="M5.33,0.81 L5.33,9.9 M0.74,5.4 L9.92,5.4" id="Shape"></path>
            </g>
        </g>
    </g>
</svg>