<?xml version="1.0"?>
<svg xmlns="http://www.w3.org/2000/svg" width="40" height="40" viewBox="0 0 40 40">
  <g fill="#136EFB">
    <path d="M27.76,20.05 L32.88,20.05 L32.88,22 L27.76,22 L27.76,20.05 Z M21.54,24.69 L32.88,24.69 L32.88,26.64 L21.54,26.64 L21.54,24.69 Z"/>
    <path d="M37.32,11.65 L25.08,11.65 L25.08,2.32 C25.08,1.03869938 24.0413006,2.35450415e-15 22.76,0 L2.32,0 C1.03869938,-7.84570351e-17 1.5691407e-16,1.03869938 0,2.32 L0,20.19 C1.5691407e-16,21.4713006 1.03869938,22.51 2.32,22.51 L5,22.51 L5,27.37 C5.00649192,27.7616134 5.24100763,28.1133869 5.6,28.27 C5.72022231,28.321241 5.84932274,28.34842 5.98,28.35 C6.23886818,28.3462966 6.48621127,28.2423408 6.67,28.06 L12.19,22.51 L14.61,22.51 L14.61,31.84 C14.61,33.1213006 15.6486994,34.16 16.93,34.16 L27.53,34.16 L33,39.71 C33.1837887,39.8923408 33.4311318,39.9962966 33.69,40 C33.8167923,40.001862 33.9426507,39.978051 34.06,39.93 C34.4261828,39.7749353 34.6656895,39.4176384 34.67,39.02 L34.67,34.16 L37.3,34.16 C38.5829283,34.1600118 39.6244939,33.1229165 39.63,31.84 L39.63,14 C39.6353272,13.3820388 39.3949402,12.7872739 38.9617263,12.3465584 C38.5285124,11.9058429 37.9379616,11.6552816 37.32,11.65 Z M6.91,25 L6.91,21.54 C6.91,20.9877153 6.46228475,20.54 5.91,20.54 L2.32,20.54 C2.14468924,20.5123737 2.01184772,20.3670783 2,20.19 L2,2.32 C2.02459703,2.15452232 2.15452232,2.02459703 2.32,2 L22.76,2 C22.9621296,2.00525276 23.1247472,2.16787038 23.13,2.37 L23.13,20.19 C23.1247472,20.3921296 22.9621296,20.5547472 22.76,20.56 L11.76,20.56 C11.4997723,20.5569833 11.2499393,20.6619856 11.07,20.85 L6.91,25 Z M37.7,31.84 C37.7000365,31.9398875 37.6596847,32.0355463 37.5881182,32.1052295 C37.5165516,32.1749127 37.4198511,32.2126997 37.32,32.21 L33.71,32.21 C33.1577153,32.21 32.71,32.6577153 32.71,33.21 L32.71,36.68 L28.59,32.5 C28.4062113,32.3176592 28.1588682,32.2137034 27.9,32.21 L16.9,32.21 C16.8010412,32.2127892 16.7053009,32.1747036 16.6352986,32.1047014 C16.5652964,32.0346991 16.5272108,31.9389588 16.53,31.84 L16.53,22.51 L22.77,22.51 C24.0513006,22.51 25.09,21.4713006 25.09,20.19 L25.09,13.6 L37.32,13.6 C37.5298682,13.6 37.7,13.7701318 37.7,13.98 L37.7,31.84 Z"/>
    <path d="M13.32,15.24 C13.32,14.588304 12.791696,14.06 12.14,14.06 C11.488304,14.06 10.96,14.588304 10.96,15.24 C10.96,15.891696 11.488304,16.42 12.14,16.42 C12.791696,16.42 13.32,15.891696 13.32,15.24 Z M12.16,8 C12.4939131,7.97241079 12.8230564,8.0931101 13.0599731,8.33002685 C13.2968899,8.5669436 13.4175892,8.89608694 13.39,9.23 C13.39,9.85 12.95,10.23 12.39,10.73 C11.683315,11.1675986 11.2155073,11.9043036 11.12,12.73 L11.12,13.23 L13.12,13.23 L13.12,12.81 C13.12,12.21 13.53,11.81 14.12,11.39 C14.8962245,10.9224386 15.3848784,10.0954859 15.42,9.19 C15.42,7.35 14.15,6.19 12.11,6.19 C11.2614652,6.11192726 10.4188063,6.39120878 9.78486539,6.9606168 C9.15092446,7.53002482 8.78312409,8.33798218 8.77,9.19 L10.77,9.32 C10.7432048,8.94974609 10.883702,8.58696293 11.1528862,8.33133472 C11.4220705,8.07570651 11.7916232,7.95412577 12.16,8 Z"/>
  </g>
</svg>
