<?xml version="1.0" encoding="UTF-8"?>
<svg xmlns="http://www.w3.org/2000/svg" width="1600" height="405" viewBox="0 0 1600 405">
  <defs>
    <linearGradient id="bg-hero-do-v4-a" x1="0%" x2="63.276%" y1="0%" y2="246.895%">
      <stop offset="0%" stop-color="#0069FF"/>
      <stop offset="100%" stop-color="#0248FF"/>
    </linearGradient>
  </defs>
  <g fill="none" fill-rule="evenodd">
    <rect width="1600" height="405" fill="#0069FF"/>
    <rect width="1600" height="405" fill="url(#bg-hero-do-v4-a)"/>
    <g fill="#0069FF" opacity=".5">
      <path d="M287.612 36.0376L323.65 36.0376 355.458 36.0376C357.667 36.0376 359.458 34.2467 359.458 32.0376L359.458 4C359.458 1.79086 357.667 0 355.458 0L323.65 0 287.612 0 251.575 0 219.766 0C217.557 0 215.766 1.79086 215.766 4L215.766 32.0376C215.766 34.2467 217.557 36.0376 219.766 36.0376L251.575 36.0376 287.612 36.0376zM539.416 36.0376L571.224 36.0376C573.433 36.0376 575.224 34.2467 575.224 32.0376L575.224 4C575.224 1.79086 573.433 0 571.224 0L539.416 0 503.379 0 471.341 0C469.132 0 467.341 1.79086 467.341 4L467.341 32.0376C467.341 34.2467 469.132 36.0376 471.341 36.0376L503.379 36.0376 539.416 36.0376zM643.299 0L615.262 0C613.053 0 611.262 1.79086 611.262 4L611.262 32.0376C611.262 34.2467 613.053 36.0376 615.262 36.0376L643.299 36.0376C645.508 36.0376 647.299 34.2467 647.299 32.0376L647.299 4C647.299 1.79086 645.508 0 643.299 0zM894.874 0L866.836 0C864.627 0 862.836 1.79086 862.836 4L862.836 32.0376C862.836 34.2467 864.627 36.0376 866.836 36.0376L894.874 36.0376C897.083 36.0376 898.874 34.2467 898.874 32.0376L898.874 4C898.874 1.79086 897.083 0 894.874 0zM1110.64 36.0376C1112.85 36.0376 1114.64 34.2467 1114.64 32.0376L1114.64 4C1114.64 1.79086 1112.85 0 1110.64 0L1078.6 0 1046.79 0C1044.59 0 1042.79 1.79086 1042.79 4L1042.79 32.0376C1042.79 34.2467 1044.59 36.0376 1046.79 36.0376L1078.6 36.0376 1110.64 36.0376zM1186.49 0L1154.68 0C1152.47 0 1150.68 1.79086 1150.68 4L1150.68 32.0376C1150.68 34.2467 1152.47 36.0376 1154.68 36.0376L1186.49 36.0376 1218.52 36.0376C1220.73 36.0376 1222.52 34.2467 1222.52 32.0376L1222.52 4C1222.52 1.79086 1220.73 0 1218.52 0L1186.49 0zM143.921 75.8456C143.921 73.6365 145.712 71.8456 147.921 71.8456L175.729 71.8456C177.938 71.8456 179.729 70.0548 179.729 67.8456L179.729 40.0376C179.729 37.8284 177.938 36.0376 175.729 36.0376L143.921 36.0376 107.883 36.0376 75.8456 36.0376C73.6365 36.0376 71.8456 37.8284 71.8456 40.0376L71.8456 67.8456C71.8456 70.0548 70.0548 71.8456 67.8456 71.8456L40.0376 71.8456C37.8284 71.8456 36.0376 70.0548 36.0376 67.8456L36.0376 40.0376C36.0376 37.8284 37.8284 36.0376 40.0376 36.0376L67.8456 36.0376C70.0548 36.0376 71.8456 34.2467 71.8456 32.0376L71.8456 4C71.8456 1.79086 70.0548 0 67.8456 0L36.0376 0 4 0C1.79086 0 0 1.79086 0 4L0 36.0376 0 71.8456 0 103.883C0 106.092 1.79086 107.883 4 107.883L32.0376 107.883C34.2467 107.883 36.0376 109.674 36.0376 111.883L36.0376 139.921C36.0376 142.13 34.2467 143.921 32.0376 143.921L4 143.921C1.79086 143.921 0 145.712 0 147.921L0 175.729C0 177.938 1.79086 179.729 4 179.729L36.0376 179.729 67.8456 179.729C70.0548 179.729 71.8456 177.938 71.8456 175.729L71.8456 147.921C71.8456 145.712 73.6365 143.921 75.8456 143.921L103.883 143.921C106.092 143.921 107.883 145.712 107.883 147.921L107.883 175.729C107.883 177.938 109.674 179.729 111.883 179.729L139.921 179.729C142.13 179.729 143.921 177.938 143.921 175.729L143.921 147.921C143.921 145.712 145.712 143.921 147.921 143.921L175.729 143.921C177.938 143.921 179.729 142.13 179.729 139.921L179.729 111.883C179.729 109.674 177.938 107.883 175.729 107.883L147.921 107.883C145.712 107.883 143.921 106.092 143.921 103.883L143.921 75.8456zM391.495 179.729L363.458 179.729C361.249 179.729 359.458 181.52 359.458 183.729L359.458 211.767C359.458 213.976 361.249 215.767 363.458 215.767L391.495 215.767C393.704 215.767 395.495 213.976 395.495 211.767L395.495 183.729C395.495 181.52 393.704 179.729 391.495 179.729zM934.911 215.767L966.719 215.767C968.929 215.767 970.719 213.976 970.719 211.767L970.719 183.729C970.719 181.52 968.929 179.729 966.719 179.729L934.911 179.729 902.874 179.729C900.665 179.729 898.874 181.52 898.874 183.729L898.874 211.767C898.874 213.976 900.665 215.767 902.874 215.767L934.911 215.767zM175.958 215.766L147.921 215.766C145.712 215.766 143.921 217.557 143.921 219.766L143.921 247.804C143.921 250.013 145.712 251.804 147.921 251.804L175.958 251.804C178.168 251.804 179.958 250.013 179.958 247.804L179.958 219.766C179.958 217.557 178.168 215.766 175.958 215.766zM499.379 251.574C501.588 251.574 503.379 249.784 503.379 247.574L503.379 219.766C503.379 217.557 501.588 215.766 499.379 215.766L467.341 215.766 435.533 215.766C433.324 215.766 431.533 217.557 431.533 219.766L431.533 247.574C431.533 249.784 433.324 251.574 435.533 251.574L467.341 251.574 499.379 251.574zM862.836 215.767L827.028 215.767 790.991 215.767 758.953 215.767C756.744 215.767 754.953 213.976 754.953 211.767L754.953 183.729C754.953 181.52 753.162 179.729 750.953 179.729L723.145 179.729C720.936 179.729 719.145 181.52 719.145 183.729L719.145 211.767C719.145 213.976 717.354 215.767 715.145 215.767L683.107 215.767 651.299 215.767C649.09 215.767 647.299 217.557 647.299 219.767L647.299 247.575C647.299 249.784 649.09 251.575 651.299 251.575L683.107 251.575 719.145 251.575 754.953 251.575 790.991 251.575 827.028 251.575 862.836 251.575 894.874 251.575C897.083 251.575 898.874 249.784 898.874 247.575L898.874 219.767C898.874 217.557 897.083 215.767 894.874 215.767L862.836 215.767zM535.416 251.574L507.379 251.574C505.169 251.574 503.379 253.365 503.379 255.574L503.379 283.612C503.379 285.821 505.169 287.612 507.379 287.612L535.416 287.612C537.625 287.612 539.416 285.821 539.416 283.612L539.416 255.574C539.416 253.365 537.625 251.574 535.416 251.574zM103.883 287.612L75.8456 287.612C73.6364 287.612 71.8456 289.403 71.8456 291.612L71.8456 319.65C71.8456 321.859 73.6364 323.65 75.8456 323.65L103.883 323.65C106.092 323.65 107.883 321.859 107.883 319.65L107.883 291.612C107.883 289.403 106.092 287.612 103.883 287.612zM435.533 287.612C433.324 287.612 431.533 289.403 431.533 291.612L431.533 319.65C431.533 321.859 433.324 323.65 435.533 323.65L467.341 323.65 499.379 323.65C501.588 323.65 503.379 321.859 503.379 319.65L503.379 291.612C503.379 289.403 501.588 287.612 499.379 287.612L467.341 287.612 435.533 287.612zM786.991 323.65C789.2 323.65 790.991 321.859 790.991 319.65L790.991 291.612C790.991 289.403 789.2 287.612 786.991 287.612L754.953 287.612 723.145 287.612C720.936 287.612 719.145 289.403 719.145 291.612L719.145 319.65C719.145 321.859 720.936 323.65 723.145 323.65L754.953 323.65 786.991 323.65zM970.719 291.612C970.719 289.403 972.51 287.612 974.719 287.612L1002.76 287.612C1004.97 287.612 1006.76 285.821 1006.76 283.612L1006.76 255.574C1006.76 253.365 1004.97 251.574 1002.76 251.574L970.719 251.574 934.911 251.574 902.874 251.574C900.665 251.574 898.874 253.365 898.874 255.574L898.874 283.612C898.874 285.821 900.665 287.612 902.874 287.612L930.911 287.612C933.12 287.612 934.911 289.403 934.911 291.612L934.911 319.65C934.911 321.859 936.702 323.65 938.911 323.65L966.719 323.65C968.929 323.65 970.719 321.859 970.719 319.65L970.719 291.612zM395.495 323.65L363.458 323.65C361.249 323.65 359.458 321.859 359.458 319.65L359.458 291.612C359.458 289.403 361.249 287.612 363.458 287.612L395.495 287.612 427.533 287.612C429.742 287.612 431.533 285.821 431.533 283.612L431.533 255.574C431.533 253.365 429.742 251.574 427.533 251.574L395.495 251.574 359.458 251.574 327.65 251.574C325.441 251.574 323.65 249.784 323.65 247.574L323.65 219.766C323.65 217.557 321.859 215.766 319.65 215.766L287.612 215.766 251.575 215.766 219.767 215.766C217.557 215.766 215.767 217.557 215.767 219.766L215.767 247.574C215.767 249.784 217.557 251.574 219.767 251.574L251.575 251.574 283.612 251.574C285.821 251.574 287.612 253.365 287.612 255.574L287.612 283.612C287.612 285.821 289.403 287.612 291.612 287.612L319.65 287.612C321.859 287.612 323.65 289.403 323.65 291.612L323.65 319.65C323.65 321.859 321.859 323.65 319.65 323.65L291.612 323.65C289.403 323.65 287.612 321.859 287.612 319.65L287.612 291.612C287.612 289.403 285.821 287.612 283.612 287.612L251.575 287.612 215.767 287.612 179.729 287.612 147.921 287.612C145.712 287.612 143.921 289.403 143.921 291.612L143.921 319.65C143.921 321.859 145.712 323.65 147.921 323.65L179.729 323.65 215.767 323.65 247.575 323.65C249.784 323.65 251.575 325.44 251.575 327.65L251.575 355.458C251.575 357.667 253.365 359.458 255.575 359.458L283.612 359.458C285.821 359.458 287.612 361.249 287.612 363.458L287.612 391.495C287.612 393.704 289.403 395.495 291.612 395.495L319.65 395.495C321.859 395.495 323.65 393.704 323.65 391.495L323.65 363.458C323.65 361.249 325.441 359.458 327.65 359.458L359.458 359.458 395.495 359.458 427.533 359.458C429.742 359.458 431.533 357.667 431.533 355.458L431.533 327.65C431.533 325.44 429.742 323.65 427.533 323.65L395.495 323.65zM898.874 359.458L930.911 359.458C933.121 359.458 934.911 357.667 934.911 355.458L934.911 327.65C934.911 325.441 933.121 323.65 930.911 323.65L898.874 323.65 862.836 323.65 831.028 323.65C828.819 323.65 827.028 325.441 827.028 327.65L827.028 355.458C827.028 357.667 828.819 359.458 831.028 359.458L862.836 359.458 898.874 359.458z"/>
      <path d="M247.804 359.458L219.766 359.458C217.557 359.458 215.766 361.249 215.766 363.458L215.766 391.495C215.766 393.704 217.557 395.495 219.766 395.495L247.804 395.495C250.013 395.495 251.804 393.704 251.804 391.495L251.804 363.458C251.804 361.249 250.013 359.458 247.804 359.458zM32.0376 359.458L4 359.458C1.79086 359.458 0 361.249 0 363.458L0 391.495C0 393.704 1.79086 395.495 4 395.495L32.0376 395.495C34.2467 395.495 36.0376 393.704 36.0376 391.495L36.0376 363.458C36.0376 361.249 34.2467 359.458 32.0376 359.458zM175.958 359.458L147.921 359.458C145.712 359.458 143.921 361.249 143.921 363.458L143.921 391.495C143.921 393.704 145.712 395.495 147.921 395.495L175.958 395.495C178.168 395.495 179.958 393.704 179.958 391.495L179.958 363.458C179.958 361.249 178.168 359.458 175.958 359.458zM790.991 359.458L754.953 359.458 723.145 359.458C720.936 359.458 719.145 357.667 719.145 355.458L719.145 327.65C719.145 325.441 717.354 323.65 715.145 323.65L683.107 323.65 651.299 323.65C649.09 323.65 647.299 321.859 647.299 319.65L647.299 291.612C647.299 289.403 645.508 287.612 643.299 287.612L615.262 287.612C613.053 287.612 611.262 289.403 611.262 291.612L611.262 319.65C611.262 321.859 609.471 323.65 607.262 323.65L579.224 323.65C577.015 323.65 575.224 325.441 575.224 327.65L575.224 355.458C575.224 357.667 573.433 359.458 571.224 359.458L539.416 359.458 503.379 359.458 467.341 359.458 435.533 359.458C433.324 359.458 431.533 361.249 431.533 363.458L431.533 391.496C431.533 393.705 433.324 395.496 435.533 395.496L467.341 395.496 499.379 395.496C501.588 395.496 503.379 397.286 503.379 399.496L503.379 427.533C503.379 429.742 501.588 431.533 499.379 431.533L467.341 431.533 431.533 431.533 395.495 431.533 359.458 431.533 327.65 431.533C325.441 431.533 323.65 433.324 323.65 435.533L323.65 463.341C323.65 465.55 325.441 467.341 327.65 467.341L359.458 467.341 395.495 467.341 431.533 467.341 467.341 467.341 499.379 467.341C501.588 467.341 503.379 469.132 503.379 471.341L503.379 499.379C503.379 501.588 505.169 503.379 507.379 503.379L535.416 503.379C537.625 503.379 539.416 501.588 539.416 499.379L539.416 471.341C539.416 469.132 541.207 467.341 543.416 467.341L575.224 467.341 611.262 467.341 643.299 467.341C645.508 467.341 647.299 465.55 647.299 463.341L647.299 435.533C647.299 433.324 649.09 431.533 651.299 431.533L679.107 431.533C681.317 431.533 683.107 429.742 683.107 427.533L683.107 399.496C683.107 397.286 684.898 395.496 687.107 395.496L719.145 395.496 754.953 395.496 790.991 395.496 823.028 395.496C825.237 395.496 827.028 393.705 827.028 391.496L827.028 363.458C827.028 361.249 825.237 359.458 823.028 359.458L790.991 359.458z"/>
      <path fill-rule="nonzero" d="M2193.24,719.145 L2193.24,687.107 C2193.24,684.898 2191.45,683.107 2189.24,683.107 L2157.21,683.107 L2125.17,683.107 C2122.96,683.107 2121.17,681.317 2121.17,679.107 L2121.17,651.299 C2121.17,649.09 2119.38,647.299 2117.17,647.299 L2085.13,647.299 L2049.09,647.299 L2013.05,647.299 L1981.02,647.299 C1978.81,647.299 1977.02,645.508 1977.02,643.299 L1977.02,615.262 C1977.02,613.053 1978.81,611.262 1981.02,611.262 L2009.05,611.262 C2011.26,611.262 2013.05,609.471 2013.05,607.262 L2013.05,579.224 C2013.05,577.015 2011.26,575.224 2009.05,575.224 L1977.02,575.224 L1940.98,575.224 L1904.94,575.224 L1872.9,575.224 C1870.7,575.224 1868.9,573.433 1868.9,571.224 L1868.9,543.416 C1868.9,541.207 1867.11,539.416 1864.9,539.416 L1832.87,539.416 L1800.83,539.416 C1798.62,539.416 1796.83,537.625 1796.83,535.416 L1796.83,507.379 C1796.83,505.169 1798.62,503.379 1800.83,503.379 L1832.87,503.379 L1864.9,503.379 C1867.11,503.379 1868.9,505.169 1868.9,507.379 L1868.9,535.416 C1868.9,537.625 1870.7,539.416 1872.9,539.416 L1904.94,539.416 L1940.98,539.416 L1977.02,539.416 L2009.05,539.416 C2011.26,539.416 2013.05,541.207 2013.05,543.416 L2013.05,571.454 C2013.05,573.663 2014.85,575.454 2017.05,575.454 L2045.09,575.454 C2047.3,575.454 2049.09,577.245 2049.09,579.454 L2049.09,607.491 C2049.09,609.7 2050.88,611.491 2053.09,611.491 L2081.13,611.491 C2083.34,611.491 2085.13,609.7 2085.13,607.491 L2085.13,579.454 C2085.13,577.245 2086.92,575.454 2089.13,575.454 L2117.17,575.454 C2119.38,575.454 2121.17,573.663 2121.17,571.454 L2121.17,543.416 C2121.17,541.207 2119.38,539.416 2117.17,539.416 L2089.13,539.416 C2086.92,539.416 2085.13,537.625 2085.13,535.416 L2085.13,507.379 C2085.13,505.169 2083.34,503.379 2081.13,503.379 L2053.09,503.379 C2050.88,503.379 2049.09,501.588 2049.09,499.379 L2049.09,471.341 C2049.09,469.132 2047.3,467.341 2045.09,467.341 L2013.05,467.341 L1977.02,467.341 L1940.98,467.341 L1908.94,467.341 C1906.73,467.341 1904.94,465.55 1904.94,463.341 L1904.94,435.533 C1904.94,433.324 1906.73,431.533 1908.94,431.533 L1940.98,431.533 L1977.02,431.533 L2013.05,431.533 L2045.09,431.533 C2047.3,431.533 2049.09,433.324 2049.09,435.533 L2049.09,463.57 C2049.09,465.78 2050.88,467.57 2053.09,467.57 L2085.13,467.57 L2121.17,467.57 L2153.21,467.57 C2155.41,467.57 2157.21,469.361 2157.21,471.57 L2157.21,499.608 C2157.21,501.817 2155.41,503.608 2153.21,503.608 L2125.17,503.608 C2122.96,503.608 2121.17,505.399 2121.17,507.608 L2121.17,535.416 C2121.17,537.625 2122.96,539.416 2125.17,539.416 L2157.21,539.416 L2189.24,539.416 C2191.45,539.416 2193.24,541.207 2193.24,543.416 L2193.24,571.454 C2193.24,573.663 2195.03,575.454 2197.24,575.454 L2225.28,575.454 C2227.49,575.454 2229.28,573.663 2229.28,571.454 L2229.28,543.416 C2229.28,541.207 2231.07,539.416 2233.28,539.416 L2261.32,539.416 C2263.53,539.416 2265.32,537.625 2265.32,535.416 L2265.32,507.379 C2265.32,505.169 2263.53,503.379 2261.32,503.379 L2233.28,503.379 C2231.07,503.379 2229.28,501.588 2229.28,499.379 L2229.28,471.341 C2229.28,469.132 2231.07,467.341 2233.28,467.341 L2261.32,467.341 C2263.53,467.341 2265.32,465.55 2265.32,463.341 L2265.32,435.533 C2265.32,433.324 2263.53,431.533 2261.32,431.533 L2229.28,431.533 L2193.24,431.533 L2161.21,431.533 C2159,431.533 2157.21,429.742 2157.21,427.533 L2157.21,399.495 C2157.21,397.286 2155.41,395.495 2153.21,395.495 L2121.17,395.495 L2085.13,395.495 L2053.09,395.495 C2050.88,395.495 2049.09,393.704 2049.09,391.495 L2049.09,363.458 C2049.09,361.249 2047.3,359.458 2045.09,359.458 L2017.05,359.458 C2014.85,359.458 2013.05,357.667 2013.05,355.458 L2013.05,327.65 C2013.05,325.441 2014.85,323.65 2017.05,323.65 L2049.09,323.65 L2085.13,323.65 L2117.17,323.65 C2119.38,323.65 2121.17,325.441 2121.17,327.65 L2121.17,355.687 C2121.17,357.896 2122.96,359.687 2125.17,359.687 L2153.21,359.687 C2155.41,359.687 2157.21,357.896 2157.21,355.687 L2157.21,327.65 C2157.21,325.441 2159,323.65 2161.21,323.65 L2193.24,323.65 L2229.28,323.65 L2261.32,323.65 C2263.53,323.65 2265.32,321.859 2265.32,319.65 L2265.32,291.612 C2265.32,289.403 2263.53,287.612 2261.32,287.612 L2229.28,287.612 L2197.24,287.612 C2195.03,287.612 2193.24,285.821 2193.24,283.612 L2193.24,255.574 C2193.24,253.365 2195.03,251.574 2197.24,251.574 L2229.28,251.574 L2261.32,251.574 C2263.53,251.574 2265.32,249.784 2265.32,247.574 L2265.32,219.766 C2265.32,217.557 2267.11,215.766 2269.32,215.766 L2297.36,215.766 C2299.56,215.766 2301.36,213.976 2301.36,211.766 L2301.36,183.729 C2301.36,181.52 2299.56,179.729 2297.36,179.729 L2265.32,179.729 L2229.28,179.729 L2197.24,179.729 C2195.03,179.729 2193.24,181.52 2193.24,183.729 L2193.24,211.766 C2193.24,213.976 2191.45,215.766 2189.24,215.766 L2161.21,215.766 C2159,215.766 2157.21,217.557 2157.21,219.766 L2157.21,247.804 C2157.21,250.013 2155.41,251.804 2153.21,251.804 L2121.17,251.804 L2085.13,251.804 L2049.09,251.804 L2017.05,251.804 C2014.85,251.804 2013.05,250.013 2013.05,247.804 L2013.05,219.766 C2013.05,217.557 2014.85,215.766 2017.05,215.766 L2049.09,215.766 L2085.13,215.766 L2117.17,215.766 C2119.38,215.766 2121.17,213.976 2121.17,211.766 L2121.17,183.729 C2121.17,181.52 2122.96,179.729 2125.17,179.729 L2157.21,179.729 L2189.24,179.729 C2191.45,179.729 2193.24,177.938 2193.24,175.729 L2193.24,147.921 C2193.24,145.712 2191.45,143.921 2189.24,143.921 L2157.21,143.921 L2125.17,143.921 C2122.96,143.921 2121.17,142.13 2121.17,139.921 L2121.17,111.883 C2121.17,109.674 2122.96,107.883 2125.17,107.883 L2157.21,107.883 L2189.24,107.883 C2191.45,107.883 2193.24,109.674 2193.24,111.883 L2193.24,139.921 C2193.24,142.13 2195.03,143.921 2197.24,143.921 L2229.28,143.921 L2261.32,143.921 C2263.53,143.921 2265.32,142.13 2265.32,139.921 L2265.32,111.883 C2265.32,109.674 2267.11,107.883 2269.32,107.883 L2301.36,107.883 L2333.39,107.883 C2335.6,107.883 2337.39,109.674 2337.39,111.883 L2337.39,139.921 C2337.39,142.13 2335.6,143.921 2333.39,143.921 L2305.36,143.921 C2303.15,143.921 2301.36,145.712 2301.36,147.921 L2301.36,175.958 C2301.36,178.168 2303.15,179.958 2305.36,179.958 L2337.39,179.958 L2373.43,179.958 L2405.47,179.958 C2407.68,179.958 2409.47,181.749 2409.47,183.958 L2409.47,211.766 C2409.47,213.976 2411.26,215.766 2413.47,215.766 L2445.51,215.766 L2477.54,215.766 C2479.75,215.766 2481.54,213.976 2481.54,211.766 L2481.54,183.729 C2481.54,181.52 2483.33,179.729 2485.54,179.729 L2517.58,179.729 L2549.62,179.729 C2551.83,179.729 2553.62,177.938 2553.62,175.729 L2553.62,147.921 C2553.62,145.712 2555.41,143.921 2557.62,143.921 L2585.66,143.921 C2587.87,143.921 2589.66,145.712 2589.66,147.921 L2589.66,175.958 C2589.66,178.168 2591.45,179.958 2593.66,179.958 L2625.69,179.958 L2657.73,179.958 C2659.94,179.958 2661.73,178.168 2661.73,175.958 L2661.73,147.921 C2661.73,145.712 2663.52,143.921 2665.73,143.921 L2693.77,143.921 C2695.98,143.921 2697.77,142.13 2697.77,139.921 L2697.77,111.883 C2697.77,109.674 2695.98,107.883 2693.77,107.883 L2665.73,107.883 C2663.52,107.883 2661.73,106.092 2661.73,103.883 L2661.73,75.8456 C2661.73,73.6365 2659.94,71.8456 2657.73,71.8456 L2625.69,71.8456 L2593.66,71.8456 C2591.45,71.8456 2589.66,70.0548 2589.66,67.8456 L2589.66,40.0376 C2589.66,37.8284 2587.87,36.0376 2585.66,36.0376 L2553.62,36.0376 L2517.58,36.0376 L2485.54,36.0376 C2483.33,36.0376 2481.54,34.2467 2481.54,32.0376 L2481.54,4 C2481.54,1.79086 2479.75,0 2477.54,0 L2449.51,0 C2447.3,0 2445.51,1.79086 2445.51,4 L2445.51,32.0376 C2445.51,34.2467 2443.72,36.0376 2441.51,36.0376 L2409.47,36.0376 L2377.43,36.0376 C2375.22,36.0376 2373.43,34.2467 2373.43,32.0376 L2373.43,4 C2373.43,1.79086 2371.64,0 2369.43,0 L2337.39,0 L2301.36,0 L2269.32,0 C2267.11,0 2265.32,1.79086 2265.32,4 L2265.32,32.0376 C2265.32,34.2467 2263.53,36.0376 2261.32,36.0376 L2233.28,36.0376 C2231.07,36.0376 2229.28,34.2467 2229.28,32.0376 L2229.28,4 C2229.28,1.79086 2227.49,0 2225.28,0 L2197.24,0 C2195.03,0 2193.24,1.79086 2193.24,4 L2193.24,32.0376 C2193.24,34.2467 2191.45,36.0376 2189.24,36.0376 L2161.21,36.0376 C2159,36.0376 2157.21,34.2467 2157.21,32.0376 L2157.21,4 C2157.21,1.79086 2155.41,0 2153.21,0 L2121.17,0 L2085.13,0 L2049.09,0 L2017.05,0 C2014.85,0 2013.05,1.79086 2013.05,4 L2013.05,32.0376 C2013.05,34.2467 2011.26,36.0376 2009.05,36.0376 L1981.02,36.0376 C1978.81,36.0376 1977.02,34.2467 1977.02,32.0376 L1977.02,4 C1977.02,1.79086 1975.23,0 1973.02,0 L1940.98,0 L1904.94,0 L1868.9,0 L1832.87,0 L1796.83,0 L1764.79,0 C1762.58,0 1760.79,1.79086 1760.79,4 L1760.79,32.0376 C1760.79,34.2467 1759,36.0376 1756.79,36.0376 L1724.75,36.0376 L1692.72,36.0376 C1690.51,36.0376 1688.72,37.8284 1688.72,40.0376 L1688.72,68.0752 C1688.72,70.2843 1686.93,72.0752 1684.72,72.0752 L1656.68,72.0752 C1654.47,72.0752 1652.68,70.2843 1652.68,68.0752 L1652.68,40.0376 C1652.68,37.8284 1654.47,36.0376 1656.68,36.0376 L1684.72,36.0376 C1686.93,36.0376 1688.72,34.2467 1688.72,32.0376 L1688.72,4 C1688.72,1.79086 1686.93,0 1684.72,0 L1652.68,0 L1620.64,0 C1618.43,0 1616.64,1.79086 1616.64,4 L1616.64,32.0376 C1616.64,34.2467 1614.85,36.0376 1612.64,36.0376 L1584.6,36.0376 C1582.39,36.0376 1580.6,34.2467 1580.6,32.0376 L1580.6,4 C1580.6,1.79086 1578.81,0 1576.6,0 L1544.57,0 L1508.53,0 L1472.49,0 L1436.45,0 L1400.42,0 L1364.38,0 L1328.34,0 L1292.3,0 L1260.27,0 C1258.06,0 1256.27,1.79086 1256.27,4 L1256.27,32.0376 C1256.27,34.2467 1254.47,36.0376 1252.27,36.0376 L1224.23,36.0376 C1222.02,36.0376 1220.23,37.8284 1220.23,40.0376 L1220.23,68.0752 C1220.23,70.2843 1218.44,72.0752 1216.23,72.0752 L1184.19,72.0752 L1148.15,72.0752 L1112.12,72.0752 L1076.08,72.0752 L1044.04,72.0752 C1041.83,72.0752 1040.04,70.2843 1040.04,68.0752 L1040.04,40.0376 C1040.04,37.8284 1038.25,36.0376 1036.04,36.0376 L1004,36.0376 L971.965,36.0376 C969.756,36.0376 967.965,37.8284 967.965,40.0376 L967.965,68.0752 C967.965,70.2843 966.174,72.0752 963.965,72.0752 L931.927,72.0752 L895.89,72.0752 L863.852,72.0752 C861.643,72.0752 859.852,70.2843 859.852,68.0752 L859.852,40.0376 C859.852,37.8284 858.061,36.0376 855.852,36.0376 L827.815,36.0376 C825.605,36.0376 823.815,37.8284 823.815,40.0376 L823.815,68.0752 C823.815,70.2843 822.024,72.0752 819.815,72.0752 L787.777,72.0752 L755.739,72.0752 C753.53,72.0752 751.739,70.2843 751.739,68.0752 L751.739,40.0376 C751.739,37.8284 753.53,36.0376 755.739,36.0376 L787.777,36.0376 L819.815,36.0376 C822.024,36.0376 823.815,34.2467 823.815,32.0376 L823.815,4 C823.815,1.79086 822.024,0 819.815,0 L787.777,0 L751.739,0 L715.702,0 L683.664,0 C681.455,0 679.664,1.79086 679.664,4 L679.664,32.0376 C679.664,34.2467 681.455,36.0376 683.664,36.0376 L711.702,36.0376 C713.911,36.0376 715.702,37.8284 715.702,40.0376 L715.702,68.0752 C715.702,70.2843 713.911,72.0752 711.702,72.0752 L683.664,72.0752 C681.455,72.0752 679.664,70.2843 679.664,68.0752 L679.664,40.0376 C679.664,37.8284 677.873,36.0376 675.664,36.0376 L651.299,36.0376 C649.09,36.0376 647.299,37.8284 647.299,40.0376 L647.299,68.0752 C647.299,70.2843 645.508,72.0752 643.299,72.0752 L611.262,72.0752 L575.224,72.0752 L539.416,72.0752 L503.378,72.0752 L471.341,72.0752 C469.132,72.0752 467.341,70.2843 467.341,68.0752 L467.341,40.0376 C467.341,37.8284 465.55,36.0376 463.341,36.0376 L431.533,36.0376 L399.495,36.0376 C397.286,36.0376 395.495,37.8284 395.495,40.0376 L395.495,68.0752 C395.495,70.2843 393.704,72.0752 391.495,72.0752 L359.458,72.0752 L323.65,72.0752 L287.612,72.0752 L251.574,72.0752 L215.766,72.0752 L183.729,72.0752 C181.52,72.0752 179.729,73.866 179.729,76.0752 L179.729,103.883 C179.729,106.092 181.52,107.883 183.729,107.883 L211.766,107.883 C213.975,107.883 215.766,109.674 215.766,111.883 L215.766,139.921 C215.766,142.13 217.557,143.921 219.766,143.921 L251.804,143.921 L287.842,143.921 L319.65,143.921 C321.859,143.921 323.65,142.13 323.65,139.921 L323.65,111.883 C323.65,109.674 325.44,107.883 327.65,107.883 L359.687,107.883 L395.725,107.883 L427.533,107.883 C429.742,107.883 431.533,109.674 431.533,111.883 L431.533,139.921 C431.533,142.13 429.742,143.921 427.533,143.921 L399.495,143.921 C397.286,143.921 395.495,145.712 395.495,147.921 L395.495,175.958 C395.495,178.168 397.286,179.958 399.495,179.958 L431.533,179.958 L467.57,179.958 L503.608,179.958 L539.416,179.958 L575.454,179.958 L611.491,179.958 L647.299,179.958 L683.337,179.958 L715.374,179.958 C717.584,179.958 719.374,178.168 719.374,175.958 L719.374,147.921 C719.374,145.712 717.584,143.921 715.374,143.921 L683.337,143.921 L647.299,143.921 L611.262,143.921 L579.224,143.921 C577.015,143.921 575.224,142.13 575.224,139.921 L575.224,111.883 C575.224,109.674 577.015,107.883 579.224,107.883 L611.262,107.883 L647.299,107.883 L683.337,107.883 L719.374,107.883 L751.412,107.883 C753.621,107.883 755.412,109.674 755.412,111.883 L755.412,139.921 C755.412,142.13 757.203,143.921 759.412,143.921 L787.45,143.921 C789.659,143.921 791.45,145.712 791.45,147.921 L791.45,175.958 C791.45,178.168 793.24,179.958 795.45,179.958 L827.487,179.958 L863.525,179.958 L895.562,179.958 C897.771,179.958 899.562,178.168 899.562,175.958 L899.562,147.921 C899.562,145.712 897.771,143.921 895.562,143.921 L863.525,143.921 L831.487,143.921 C829.278,143.921 827.487,142.13 827.487,139.921 L827.487,111.883 C827.487,109.674 829.278,107.883 831.487,107.883 L863.525,107.883 L895.562,107.883 C897.771,107.883 899.562,109.674 899.562,111.883 L899.562,139.921 C899.562,142.13 901.353,143.921 903.562,143.921 L935.6,143.921 L967.638,143.921 C969.847,143.921 971.638,142.13 971.638,139.921 L971.638,111.883 C971.638,109.674 973.428,107.883 975.638,107.883 L1007.68,107.883 L1039.71,107.883 C1041.92,107.883 1043.71,109.674 1043.71,111.883 L1043.71,139.921 C1043.71,142.13 1041.92,143.921 1039.71,143.921 L1007.68,143.921 L975.638,143.921 C973.428,143.921 971.638,145.712 971.638,147.921 L971.638,175.958 C971.638,178.168 973.428,179.958 975.638,179.958 L1007.68,179.958 L1043.71,179.958 L1075.75,179.958 C1077.96,179.958 1079.75,178.168 1079.75,175.958 L1079.75,147.921 C1079.75,145.712 1081.54,143.921 1083.75,143.921 L1115.79,143.921 L1147.83,143.921 C1150.03,143.921 1151.83,142.13 1151.83,139.921 L1151.83,111.883 C1151.83,109.674 1153.62,107.883 1155.83,107.883 L1187.86,107.883 L1219.9,107.883 C1222.11,107.883 1223.9,109.674 1223.9,111.883 L1223.9,139.921 C1223.9,142.13 1222.11,143.921 1219.9,143.921 L1187.86,143.921 L1155.83,143.921 C1153.62,143.921 1151.83,145.712 1151.83,147.921 L1151.83,175.958 C1151.83,178.168 1150.03,179.958 1147.83,179.958 L1115.79,179.958 L1083.75,179.958 C1081.54,179.958 1079.75,181.749 1079.75,183.958 L1079.75,211.766 C1079.75,213.976 1077.96,215.766 1075.75,215.766 L1043.71,215.766 L1011.68,215.766 C1009.47,215.766 1007.68,217.557 1007.68,219.766 L1007.68,247.804 C1007.68,250.013 1009.47,251.804 1011.68,251.804 L1043.71,251.804 L1079.75,251.804 L1115.79,251.804 L1147.83,251.804 C1150.03,251.804 1151.83,253.595 1151.83,255.804 L1151.83,283.842 C1151.83,286.051 1150.03,287.842 1147.83,287.842 L1115.79,287.842 L1079.75,287.842 L1047.71,287.842 C1045.5,287.842 1043.71,289.632 1043.71,291.842 L1043.71,319.65 C1043.71,321.859 1041.92,323.65 1039.71,323.65 L1007.68,323.65 L975.638,323.65 C973.428,323.65 971.638,325.441 971.638,327.65 L971.638,355.687 C971.638,357.896 969.847,359.687 967.638,359.687 L939.6,359.687 C937.391,359.687 935.6,361.478 935.6,363.687 L935.6,391.725 C935.6,393.934 933.809,395.725 931.6,395.725 L899.562,395.725 L863.525,395.725 L831.487,395.725 C829.278,395.725 827.487,397.516 827.487,399.725 L827.487,427.533 C827.487,429.742 825.696,431.533 823.487,431.533 L795.45,431.533 C793.24,431.533 791.45,433.324 791.45,435.533 L791.45,463.57 C791.45,465.78 789.659,467.57 787.45,467.57 L755.412,467.57 L719.374,467.57 L687.337,467.57 C685.128,467.57 683.337,469.361 683.337,471.57 L683.337,499.608 C683.337,501.817 681.546,503.608 679.337,503.608 L647.299,503.608 L611.262,503.608 L579.224,503.608 C577.015,503.608 575.224,505.399 575.224,507.608 L575.224,535.416 C575.224,537.625 577.015,539.416 579.224,539.416 L611.262,539.416 L647.299,539.416 L683.337,539.416 L719.374,539.416 L751.412,539.416 C753.621,539.416 755.412,537.625 755.412,535.416 L755.412,507.379 C755.412,505.169 757.203,503.379 759.412,503.379 L791.45,503.379 L827.487,503.379 L863.525,503.379 L899.562,503.379 L935.6,503.379 L971.638,503.379 L1003.68,503.379 C1005.88,503.379 1007.68,501.588 1007.68,499.379 L1007.68,471.341 C1007.68,469.132 1005.88,467.341 1003.68,467.341 L971.638,467.341 L935.6,467.341 L903.562,467.341 C901.353,467.341 899.562,465.55 899.562,463.341 L899.562,435.533 C899.562,433.324 901.353,431.533 903.562,431.533 L935.6,431.533 L971.638,431.533 L1007.68,431.533 L1039.71,431.533 C1041.92,431.533 1043.71,429.742 1043.71,427.533 L1043.71,399.495 C1043.71,397.286 1045.5,395.495 1047.71,395.495 L1079.75,395.495 L1115.79,395.495 L1151.83,395.495 L1183.86,395.495 C1186.07,395.495 1187.86,393.704 1187.86,391.495 L1187.86,363.458 C1187.86,361.249 1189.65,359.458 1191.86,359.458 L1223.9,359.458 L1259.94,359.458 L1295.98,359.458 L1332.01,359.458 L1364.05,359.458 C1366.26,359.458 1368.05,361.249 1368.05,363.458 L1368.05,391.495 C1368.05,393.704 1366.26,395.495 1364.05,395.495 L1332.01,395.495 L1295.98,395.495 L1263.94,395.495 C1261.73,395.495 1259.94,397.286 1259.94,399.495 L1259.94,427.533 C1259.94,429.742 1258.15,431.533 1255.94,431.533 L1223.9,431.533 L1187.86,431.533 L1155.83,431.533 C1153.62,431.533 1151.83,433.324 1151.83,435.533 L1151.83,463.57 C1151.83,465.78 1150.03,467.57 1147.83,467.57 L1119.79,467.57 C1117.58,467.57 1115.79,469.361 1115.79,471.57 L1115.79,499.608 C1115.79,501.817 1114,503.608 1111.79,503.608 L1079.75,503.608 L1043.71,503.608 L1011.68,503.608 C1009.47,503.608 1007.68,505.399 1007.68,507.608 L1007.68,535.416 C1007.68,537.625 1005.88,539.416 1003.68,539.416 L971.638,539.416 L939.6,539.416 C937.391,539.416 935.6,541.207 935.6,543.416 L935.6,571.454 C935.6,573.663 933.809,575.454 931.6,575.454 L899.562,575.454 L867.525,575.454 C865.316,575.454 863.525,577.245 863.525,579.454 L863.525,607.491 C863.525,609.7 861.734,611.491 859.525,611.491 L831.487,611.491 C829.278,611.491 827.487,613.282 827.487,615.491 L827.487,643.299 C827.487,645.508 829.278,647.299 831.487,647.299 L863.525,647.299 L899.562,647.299 L931.6,647.299 C933.809,647.299 935.6,645.508 935.6,643.299 L935.6,615.262 C935.6,613.053 937.391,611.262 939.6,611.262 L971.638,611.262 L1007.68,611.262 L1043.71,611.262 L1079.75,611.262 L1111.79,611.262 C1114,611.262 1115.79,609.471 1115.79,607.262 L1115.79,579.224 C1115.79,577.015 1117.58,575.224 1119.79,575.224 L1151.83,575.224 L1183.86,575.224 C1186.07,575.224 1187.86,573.433 1187.86,571.224 L1187.86,543.416 C1187.86,541.207 1189.65,539.416 1191.86,539.416 L1219.9,539.416 C1222.11,539.416 1223.9,537.625 1223.9,535.416 L1223.9,507.379 C1223.9,505.169 1225.69,503.379 1227.9,503.379 L1255.94,503.379 C1258.15,503.379 1259.94,501.588 1259.94,499.379 L1259.94,471.341 C1259.94,469.132 1261.73,467.341 1263.94,467.341 L1295.98,467.341 L1332.01,467.341 L1368.05,467.341 L1400.09,467.341 C1402.3,467.341 1404.09,465.55 1404.09,463.341 L1404.09,435.533 C1404.09,433.324 1405.88,431.533 1408.09,431.533 L1440.13,431.533 L1476.16,431.533 L1512.2,431.533 L1530.11,431.533 L1544.01,431.533 C1546.22,431.533 1548.01,429.742 1548.01,427.533 L1548.01,417.629 C1548.01,415.42 1549.8,413.629 1552.01,413.629 L1565.91,413.629 L1579.82,413.629 C1582.03,413.629 1583.82,415.42 1583.82,417.629 L1583.82,427.533 C1583.82,429.742 1582.03,431.533 1579.82,431.533 L1565.91,431.533 L1552.01,431.533 C1549.8,431.533 1548.01,433.324 1548.01,435.533 L1548.01,445.437 C1548.01,447.646 1546.22,449.437 1544.01,449.437 L1530.11,449.437 L1516.2,449.437 C1513.99,449.437 1512.2,451.228 1512.2,453.437 L1512.2,463.341 C1512.2,465.55 1510.41,467.341 1508.2,467.341 L1476.16,467.341 L1440.13,467.341 L1408.09,467.341 C1405.88,467.341 1404.09,469.132 1404.09,471.341 L1404.09,499.379 C1404.09,501.588 1402.3,503.379 1400.09,503.379 L1368.05,503.379 L1332.01,503.379 L1299.98,503.379 C1297.77,503.379 1295.98,505.169 1295.98,507.379 L1295.98,535.416 C1295.98,537.625 1294.18,539.416 1291.98,539.416 L1259.94,539.416 L1227.9,539.416 C1225.69,539.416 1223.9,541.207 1223.9,543.416 L1223.9,571.454 C1223.9,573.663 1222.11,575.454 1219.9,575.454 L1191.86,575.454 C1189.65,575.454 1187.86,577.245 1187.86,579.454 L1187.86,607.491 C1187.86,609.7 1186.07,611.491 1183.86,611.491 L1155.83,611.491 C1153.62,611.491 1151.83,613.282 1151.83,615.491 L1151.83,643.299 C1151.83,645.508 1150.03,647.299 1147.83,647.299 L1115.79,647.299 L1079.75,647.299 L1043.71,647.299 L1011.68,647.299 C1009.47,647.299 1007.68,649.09 1007.68,651.299 L1007.68,679.337 C1007.68,681.546 1005.88,683.337 1003.68,683.337 L971.638,683.337 L935.6,683.337 L899.562,683.337 L863.525,683.337 L831.487,683.337 C829.278,683.337 827.487,681.546 827.487,679.337 L827.487,651.299 C827.487,649.09 825.696,647.299 823.487,647.299 L795.45,647.299 C793.24,647.299 791.45,649.09 791.45,651.299 L791.45,679.337 C791.45,681.546 789.659,683.337 787.45,683.337 L755.412,683.337 L723.374,683.337 C721.165,683.337 719.374,685.128 719.374,687.337 L719.374,715.375 C719.374,717.584 717.584,719.375 715.374,719.375 L683.337,719.375 L651.299,719.375 C649.09,719.375 647.299,721.165 647.299,723.375 L647.299,751.412 C647.299,753.621 645.508,755.412 643.299,755.412 L611.262,755.412 L579.224,755.412 C577.015,755.412 575.224,757.203 575.224,759.412 L575.224,787.45 C575.224,789.659 577.015,791.45 579.224,791.45 L611.262,791.45 L647.299,791.45 L679.337,791.45 C681.546,791.45 683.337,789.659 683.337,787.45 L683.337,759.412 C683.337,757.203 685.128,755.412 687.337,755.412 L719.374,755.412 L755.412,755.412 L791.45,755.412 L823.487,755.412 C825.696,755.412 827.487,757.203 827.487,759.412 L827.487,787.45 C827.487,789.659 829.278,791.45 831.487,791.45 L859.525,791.45 C861.734,791.45 863.525,789.659 863.525,787.45 L863.525,759.412 C863.525,757.203 865.316,755.412 867.525,755.412 L895.562,755.412 C897.771,755.412 899.562,757.203 899.562,759.412 L899.562,787.45 C899.562,789.659 901.353,791.45 903.562,791.45 L935.6,791.45 L967.638,791.45 C969.847,791.45 971.638,793.241 971.638,795.45 L971.638,823.487 C971.638,825.696 973.428,827.487 975.638,827.487 L1007.68,827.487 L1043.71,827.487 L1079.75,827.487 L1111.79,827.487 C1114,827.487 1115.79,829.278 1115.79,831.487 L1115.79,859.525 C1115.79,861.734 1117.58,863.525 1119.79,863.525 L1151.83,863.525 L1183.86,863.525 C1186.07,863.525 1187.86,861.734 1187.86,859.525 L1187.86,831.487 C1187.86,829.278 1189.65,827.487 1191.86,827.487 L1223.9,827.487 L1237.8,827.487 C1240.01,827.487 1241.8,825.696 1241.8,823.487 L1241.8,813.583 C1241.8,811.374 1243.6,809.583 1245.8,809.583 L1259.71,809.583 L1277.61,809.583 L1295.52,809.583 L1313.42,809.583 L1327.32,809.583 C1329.53,809.583 1331.32,811.374 1331.32,813.583 L1331.32,823.487 C1331.32,825.696 1333.12,827.487 1335.32,827.487 L1363.36,827.487 C1365.57,827.487 1367.36,829.278 1367.36,831.487 L1367.36,859.525 C1367.36,861.734 1365.57,863.525 1363.36,863.525 L1331.32,863.525 L1295.29,863.525 L1259.25,863.525 L1223.21,863.525 L1191.17,863.525 C1188.97,863.525 1187.17,865.316 1187.17,867.525 L1187.17,895.562 C1187.17,897.772 1185.38,899.562 1183.17,899.562 L1151.14,899.562 L1115.1,899.562 L1079.06,899.562 L1047.02,899.562 C1044.81,899.562 1043.02,901.353 1043.02,903.562 L1043.02,931.6 C1043.02,933.809 1041.23,935.6 1039.02,935.6 L1010.99,935.6 C1008.78,935.6 1006.99,937.391 1006.99,939.6 L1006.99,967.638 C1006.99,969.847 1005.2,971.638 1002.99,971.638 L974.949,971.638 C972.74,971.638 970.949,973.428 970.949,975.638 L970.949,1003.68 C970.949,1005.88 972.74,1007.68 974.949,1007.68 L1006.99,1007.68 L1039.02,1007.68 C1041.23,1007.68 1043.02,1005.88 1043.02,1003.68 L1043.02,975.638 C1043.02,973.428 1044.81,971.638 1047.02,971.638 L1079.06,971.638 L1115.1,971.638 L1147.14,971.638 C1149.35,971.638 1151.14,973.428 1151.14,975.638 L1151.14,1003.68 C1151.14,1005.88 1152.93,1007.68 1155.14,1007.68 L1183.17,1007.68 C1185.38,1007.68 1187.17,1005.88 1187.17,1003.68 L1187.17,975.638 C1187.17,973.428 1188.97,971.638 1191.17,971.638 L1223.21,971.638 L1255.25,971.638 C1257.46,971.638 1259.25,973.428 1259.25,975.638 L1259.25,1003.68 C1259.25,1005.88 1257.46,1007.68 1255.25,1007.68 L1227.21,1007.68 C1225,1007.68 1223.21,1009.47 1223.21,1011.68 L1223.21,1039.71 C1223.21,1041.92 1225,1043.71 1227.21,1043.71 L1255.25,1043.71 C1257.46,1043.71 1259.25,1045.5 1259.25,1047.71 L1259.25,1075.75 C1259.25,1077.96 1261.04,1079.75 1263.25,1079.75 L1291.29,1079.75 C1293.5,1079.75 1295.29,1077.96 1295.29,1075.75 L1295.29,1047.71 C1295.29,1045.5 1297.08,1043.71 1299.29,1043.71 L1327.32,1043.71 C1329.53,1043.71 1331.32,1041.92 1331.32,1039.71 L1331.32,1011.68 C1331.32,1009.47 1333.12,1007.68 1335.32,1007.68 L1363.36,1007.68 C1365.57,1007.68 1367.36,1005.88 1367.36,1003.68 L1367.36,975.638 C1367.36,973.428 1369.15,971.638 1371.36,971.638 L1403.4,971.638 L1439.44,971.638 L1471.48,971.638 C1473.68,971.638 1475.48,973.428 1475.48,975.638 L1475.48,1003.68 C1475.48,1005.88 1473.68,1007.68 1471.48,1007.68 L1439.44,1007.68 L1403.4,1007.68 L1371.36,1007.68 C1369.15,1007.68 1367.36,1009.47 1367.36,1011.68 L1367.36,1039.71 C1367.36,1041.92 1365.57,1043.71 1363.36,1043.71 L1335.32,1043.71 C1333.12,1043.71 1331.32,1045.5 1331.32,1047.71 L1331.32,1075.75 C1331.32,1077.96 1333.12,1079.75 1335.32,1079.75 L1367.36,1079.75 L1399.4,1079.75 C1401.61,1079.75 1403.4,1081.54 1403.4,1083.75 L1403.4,1111.79 C1403.4,1114 1401.61,1115.79 1399.4,1115.79 L1367.36,1115.79 L1331.32,1115.79 L1295.29,1115.79 L1263.25,1115.79 C1261.04,1115.79 1259.25,1117.58 1259.25,1119.79 L1259.25,1147.83 C1259.25,1150.03 1257.46,1151.83 1255.25,1151.83 L1227.21,1151.83 C1225,1151.83 1223.21,1153.62 1223.21,1155.83 L1223.21,1183.86 C1223.21,1186.07 1225,1187.86 1227.21,1187.86 L1259.25,1187.86 L1291.29,1187.86 C1293.5,1187.86 1295.29,1186.07 1295.29,1183.86 L1295.29,1155.83 C1295.29,1153.62 1297.08,1151.83 1299.29,1151.83 L1327.32,1151.83 C1329.53,1151.83 1331.32,1153.62 1331.32,1155.83 L1331.32,1183.86 C1331.32,1186.07 1333.12,1187.86 1335.32,1187.86 L1363.36,1187.86 C1365.57,1187.86 1367.36,1186.07 1367.36,1183.86 L1367.36,1155.83 C1367.36,1153.62 1369.15,1151.83 1371.36,1151.83 L1403.4,1151.83 L1439.44,1151.83 L1475.48,1151.83 L1507.51,1151.83 C1509.72,1151.83 1511.51,1153.62 1511.51,1155.83 L1511.51,1183.86 C1511.51,1186.07 1509.72,1187.86 1507.51,1187.86 L1475.48,1187.86 L1439.44,1187.86 L1407.4,1187.86 C1405.19,1187.86 1403.4,1189.65 1403.4,1191.86 L1403.4,1219.9 C1403.4,1222.11 1405.19,1223.9 1407.4,1223.9 L1439.44,1223.9 L1475.48,1223.9 L1511.51,1223.9 L1547.55,1223.9 L1583.59,1223.9 L1615.63,1223.9 C1617.83,1223.9 1619.63,1225.69 1619.63,1227.9 L1619.63,1255.94 C1619.63,1258.15 1617.83,1259.94 1615.63,1259.94 L1583.59,1259.94 L1547.55,1259.94 L1511.51,1259.94 L1479.48,1259.94 C1477.27,1259.94 1475.48,1261.73 1475.48,1263.94 L1475.48,1291.98 C1475.48,1294.19 1473.68,1295.98 1471.48,1295.98 L1439.44,1295.98 L1403.4,1295.98 L1371.36,1295.98 C1369.15,1295.98 1367.36,1297.77 1367.36,1299.98 L1367.36,1328.01 C1367.36,1330.22 1369.15,1332.01 1371.36,1332.01 L1403.4,1332.01 L1439.44,1332.01 L1475.48,1332.01 L1511.51,1332.01 L1543.55,1332.01 C1545.76,1332.01 1547.55,1330.22 1547.55,1328.01 L1547.55,1299.98 C1547.55,1297.77 1549.34,1295.98 1551.55,1295.98 L1583.59,1295.98 L1619.63,1295.98 L1655.66,1295.98 L1687.7,1295.98 C1689.91,1295.98 1691.7,1294.19 1691.7,1291.98 L1691.7,1263.94 C1691.7,1261.73 1689.91,1259.94 1687.7,1259.94 L1659.66,1259.94 C1657.45,1259.94 1655.66,1258.15 1655.66,1255.94 L1655.66,1227.9 C1655.66,1225.69 1657.45,1223.9 1659.66,1223.9 L1687.7,1223.9 C1689.91,1223.9 1691.7,1225.69 1691.7,1227.9 L1691.7,1255.94 C1691.7,1258.15 1693.49,1259.94 1695.7,1259.94 L1727.74,1259.94 L1763.78,1259.94 L1795.81,1259.94 C1798.02,1259.94 1799.81,1258.15 1799.81,1255.94 L1799.81,1227.9 C1799.81,1225.69 1801.6,1223.9 1803.81,1223.9 L1835.85,1223.9 L1867.89,1223.9 C1870.1,1223.9 1871.89,1225.69 1871.89,1227.9 L1871.89,1255.94 C1871.89,1258.15 1873.68,1259.94 1875.89,1259.94 L1903.93,1259.94 C1906.14,1259.94 1907.93,1261.73 1907.93,1263.94 L1907.93,1291.98 C1907.93,1294.19 1909.72,1295.98 1911.93,1295.98 L1943.96,1295.98 L1980,1295.98 L2012.04,1295.98 C2014.25,1295.98 2016.04,1294.19 2016.04,1291.98 L2016.04,1263.94 C2016.04,1261.73 2014.25,1259.94 2012.04,1259.94 L1980,1259.94 L1947.96,1259.94 C1945.75,1259.94 1943.96,1258.15 1943.96,1255.94 L1943.96,1227.9 C1943.96,1225.69 1945.75,1223.9 1947.96,1223.9 L1976,1223.9 C1978.21,1223.9 1980,1222.11 1980,1219.9 L1980,1191.86 C1980,1189.65 1981.79,1187.86 1984,1187.86 L2012.04,1187.86 C2014.25,1187.86 2016.04,1186.07 2016.04,1183.86 L2016.04,1155.83 C2016.04,1153.62 2014.25,1151.83 2012.04,1151.83 L1980,1151.83 L1947.96,1151.83 C1945.75,1151.83 1943.96,1150.03 1943.96,1147.83 L1943.96,1119.79 C1943.96,1117.58 1942.17,1115.79 1939.96,1115.79 L1907.93,1115.79 L1875.89,1115.79 C1873.68,1115.79 1871.89,1114 1871.89,1111.79 L1871.89,1083.75 C1871.89,1081.54 1873.68,1079.75 1875.89,1079.75 L1907.93,1079.75 L1943.96,1079.75 L1980,1079.75 L2016.04,1079.75 L2048.08,1079.75 C2050.29,1079.75 2052.08,1077.96 2052.08,1075.75 L2052.08,1047.71 C2052.08,1045.5 2053.87,1043.71 2056.08,1043.71 L2088.11,1043.71 L2120.15,1043.71 C2122.36,1043.71 2124.15,1041.92 2124.15,1039.71 L2124.15,1011.68 C2124.15,1009.47 2122.36,1007.68 2120.15,1007.68 L2088.11,1007.68 L2052.08,1007.68 L2020.04,1007.68 C2017.83,1007.68 2016.04,1005.88 2016.04,1003.68 L2016.04,975.638 C2016.04,973.428 2014.25,971.638 2012.04,971.638 L1984,971.638 C1981.79,971.638 1980,973.428 1980,975.638 L1980,1003.68 C1980,1005.88 1978.21,1007.68 1976,1007.68 L1947.96,1007.68 C1945.75,1007.68 1943.96,1005.88 1943.96,1003.68 L1943.96,975.638 C1943.96,973.428 1942.17,971.638 1939.96,971.638 L1907.93,971.638 L1871.89,971.638 L1835.85,971.638 L1803.81,971.638 C1801.6,971.638 1799.81,969.847 1799.81,967.638 L1799.81,939.6 C1799.81,937.391 1801.6,935.6 1803.81,935.6 L1835.85,935.6 L1871.89,935.6 L1907.93,935.6 L1943.96,935.6 L1980,935.6 L2016.04,935.6 L2052.08,935.6 L2084.11,935.6 C2086.32,935.6 2088.11,937.391 2088.11,939.6 L2088.11,967.638 C2088.11,969.847 2089.91,971.638 2092.11,971.638 L2124.15,971.638 L2160.19,971.638 L2192.23,971.638 C2194.44,971.638 2196.23,969.847 2196.23,967.638 L2196.23,939.6 C2196.23,937.391 2198.02,935.6 2200.23,935.6 L2232.26,935.6 L2268.3,935.6 L2300.34,935.6 C2302.55,935.6 2304.34,933.809 2304.34,931.6 L2304.34,903.562 C2304.34,901.353 2302.55,899.562 2300.34,899.562 L2268.3,899.562 L2232.26,899.562 L2196.23,899.562 L2160.19,899.562 L2128.15,899.562 C2125.94,899.562 2124.15,897.772 2124.15,895.562 L2124.15,867.525 C2124.15,865.316 2122.36,863.525 2120.15,863.525 L2088.11,863.525 L2052.08,863.525 L2020.04,863.525 C2017.83,863.525 2016.04,861.734 2016.04,859.525 L2016.04,831.487 C2016.04,829.278 2017.83,827.487 2020.04,827.487 L2052.08,827.487 L2088.11,827.487 L2120.15,827.487 C2122.36,827.487 2124.15,829.278 2124.15,831.487 L2124.15,859.525 C2124.15,861.734 2125.94,863.525 2128.15,863.525 L2160.19,863.525 L2192.23,863.525 C2194.44,863.525 2196.23,861.734 2196.23,859.525 L2196.23,831.487 C2196.23,829.278 2194.44,827.487 2192.23,827.487 L2164.19,827.487 C2161.98,827.487 2160.19,825.696 2160.19,823.487 L2160.19,795.45 C2160.19,793.241 2158.4,791.45 2156.19,791.45 L2128.15,791.45 C2125.94,791.45 2124.15,789.659 2124.15,787.45 L2124.15,759.412 C2124.15,757.203 2125.94,755.412 2128.15,755.412 L2160.19,755.412 L2192.23,755.412 C2194.44,755.412 2196.23,757.203 2196.23,759.412 L2196.23,787.45 C2196.23,789.659 2198.02,791.45 2200.23,791.45 L2228.26,791.45 C2230.47,791.45 2232.26,789.659 2232.26,787.45 L2232.26,759.412 C2232.26,757.203 2234.06,755.412 2236.26,755.412 L2264.3,755.412 C2266.51,755.412 2268.3,753.621 2268.3,751.412 L2268.3,723.375 C2268.3,721.165 2266.51,719.375 2264.3,719.375 L2232.26,719.375 L2193.47,719.375 C2193.35,719.375 2193.24,719.272 2193.24,719.145 Z M1887.73,858.836 C1887.73,861.045 1885.94,862.836 1883.73,862.836 L1873.82,862.836 C1871.61,862.836 1869.82,861.045 1869.82,858.836 L1869.82,848.932 C1869.82,846.723 1871.61,844.932 1873.82,844.932 L1883.73,844.932 C1885.94,844.932 1887.73,846.723 1887.73,848.932 L1887.73,858.836 Z M1743.81,1110.64 C1743.81,1112.85 1742.02,1114.64 1739.81,1114.64 L1729.9,1114.64 C1727.69,1114.64 1725.9,1112.85 1725.9,1110.64 L1725.9,1100.74 C1725.9,1098.53 1727.69,1096.74 1729.9,1096.74 L1739.81,1096.74 C1742.02,1096.74 1743.81,1098.53 1743.81,1100.74 L1743.81,1110.64 Z M1779.84,750.953 C1779.84,753.162 1778.05,754.953 1775.84,754.953 L1765.94,754.953 C1763.73,754.953 1761.94,753.162 1761.94,750.953 L1761.94,741.049 C1761.94,738.84 1763.73,737.049 1765.94,737.049 L1775.84,737.049 C1778.05,737.049 1779.84,738.84 1779.84,741.049 L1779.84,750.953 Z M1600.11,643.299 C1600.11,645.508 1598.32,647.299 1596.11,647.299 L1586.21,647.299 C1584,647.299 1582.21,645.508 1582.21,643.299 L1582.21,633.395 C1582.21,631.186 1584,629.395 1586.21,629.395 L1596.11,629.395 C1598.32,629.395 1600.11,631.186 1600.11,633.395 L1600.11,643.299 Z M1510.14,633.166 C1510.14,630.957 1511.93,629.166 1514.14,629.166 L1524.04,629.166 C1526.25,629.166 1528.04,630.957 1528.04,633.166 L1528.04,643.07 C1528.04,645.279 1526.25,647.07 1524.04,647.07 L1514.14,647.07 C1511.93,647.07 1510.14,645.279 1510.14,643.07 L1510.14,633.166 Z M1671.96,535.416 C1671.96,537.625 1670.17,539.416 1667.96,539.416 L1658.06,539.416 C1655.85,539.416 1654.06,537.625 1654.06,535.416 L1654.06,525.512 C1654.06,523.303 1655.85,521.512 1658.06,521.512 L1667.96,521.512 C1670.17,521.512 1671.96,523.303 1671.96,525.512 L1671.96,535.416 Z M1797.75,391.495 C1797.75,393.704 1795.96,395.495 1793.75,395.495 L1783.84,395.495 C1781.63,395.495 1779.84,393.704 1779.84,391.495 L1779.84,381.591 C1779.84,379.382 1781.63,377.591 1783.84,377.591 L1793.75,377.591 C1795.96,377.591 1797.75,379.382 1797.75,381.591 L1797.75,391.495 Z M1743.81,377.477 C1743.81,377.54 1743.86,377.591 1743.92,377.591 L1757.71,377.591 C1759.92,377.591 1761.71,379.382 1761.71,381.591 L1761.71,391.495 C1761.71,393.704 1759.92,395.495 1757.71,395.495 L1743.81,395.495 L1725.9,395.495 L1689.86,395.495 L1657.83,395.495 C1655.62,395.495 1653.83,393.704 1653.83,391.495 L1653.83,363.458 C1653.83,361.249 1655.62,359.458 1657.83,359.458 L1689.86,359.458 L1721.9,359.458 C1724.11,359.458 1725.9,361.249 1725.9,363.458 L1725.9,373.362 C1725.9,375.571 1727.69,377.362 1729.9,377.362 L1743.69,377.362 C1743.75,377.362 1743.81,377.413 1743.81,377.477 Z M1761.71,147.921 C1761.71,145.712 1763.5,143.921 1765.71,143.921 L1793.75,143.921 C1795.96,143.921 1797.75,145.712 1797.75,147.921 L1797.75,175.958 C1797.75,178.168 1795.96,179.958 1793.75,179.958 L1765.71,179.958 C1763.5,179.958 1761.71,178.168 1761.71,175.958 L1761.71,147.921 Z M1438.29,255.574 C1438.29,253.365 1440.08,251.574 1442.29,251.574 L1470.33,251.574 C1472.54,251.574 1474.33,253.365 1474.33,255.574 L1474.33,283.612 C1474.33,285.821 1472.54,287.612 1470.33,287.612 L1442.29,287.612 C1440.08,287.612 1438.29,285.821 1438.29,283.612 L1438.29,255.574 Z M1564.08,309.516 C1564.08,307.307 1565.87,305.516 1568.08,305.516 L1577.98,305.516 C1580.19,305.516 1581.98,307.307 1581.98,309.516 L1581.98,319.42 C1581.98,321.629 1580.19,323.42 1577.98,323.42 L1568.08,323.42 C1565.87,323.42 1564.08,321.629 1564.08,319.42 L1564.08,309.516 Z M1366.21,255.574 C1366.21,253.365 1368.01,251.574 1370.21,251.574 L1398.25,251.574 C1400.46,251.574 1402.25,253.365 1402.25,255.574 L1402.25,283.612 C1402.25,285.821 1400.46,287.612 1398.25,287.612 L1370.21,287.612 C1368.01,287.612 1366.21,285.821 1366.21,283.612 L1366.21,255.574 Z M1438.29,615.262 C1438.29,613.053 1440.08,611.262 1442.29,611.262 L1470.33,611.262 C1472.54,611.262 1474.33,613.053 1474.33,615.262 L1474.33,625.166 C1474.33,627.375 1476.12,629.166 1478.33,629.166 L1488.23,629.166 C1490.44,629.166 1492.23,630.957 1492.23,633.166 L1492.23,643.07 C1492.23,645.279 1490.44,647.07 1488.23,647.07 L1474.33,647.07 L1442.29,647.07 C1440.08,647.07 1438.29,645.279 1438.29,643.07 L1438.29,615.262 Z M1488.23,827.028 C1490.44,827.028 1492.23,828.819 1492.23,831.028 L1492.23,840.932 C1492.23,843.141 1490.44,844.932 1488.23,844.932 L1478.33,844.932 C1476.12,844.932 1474.33,843.141 1474.33,840.932 L1474.33,831.028 C1474.33,828.819 1476.12,827.028 1478.33,827.028 L1488.23,827.028 Z M1675.96,970.719 C1673.75,970.719 1671.96,968.929 1671.96,966.719 L1671.96,956.815 C1671.96,954.606 1673.75,952.815 1675.96,952.815 L1685.86,952.815 C1688.07,952.815 1689.86,954.606 1689.86,956.815 L1689.86,966.719 C1689.86,968.929 1688.07,970.719 1685.86,970.719 L1675.96,970.719 Z M1815.65,848.932 C1815.65,846.723 1817.44,844.932 1819.65,844.932 L1829.56,844.932 C1831.76,844.932 1833.56,846.723 1833.56,848.932 L1833.56,858.836 C1833.56,861.045 1831.76,862.836 1829.56,862.836 L1819.65,862.836 C1817.44,862.836 1815.65,861.045 1815.65,858.836 L1815.65,848.932 Z M1869.59,750.953 C1869.59,753.162 1867.8,754.953 1865.59,754.953 L1833.56,754.953 L1819.65,754.953 C1817.44,754.953 1815.65,753.162 1815.65,750.953 L1815.65,741.049 C1815.65,738.84 1817.44,737.049 1819.65,737.049 L1829.56,737.049 C1831.76,737.049 1833.56,735.258 1833.56,733.049 L1833.56,723.145 C1833.56,720.936 1835.35,719.145 1837.56,719.145 L1865.59,719.145 C1867.8,719.145 1869.59,720.936 1869.59,723.145 L1869.59,750.953 Z M1937.67,611.262 C1939.88,611.262 1941.67,613.053 1941.67,615.262 L1941.67,643.299 C1941.67,645.508 1939.88,647.299 1937.67,647.299 L1909.63,647.299 C1907.42,647.299 1905.63,645.508 1905.63,643.299 L1905.63,615.262 C1905.63,613.053 1907.42,611.262 1909.63,611.262 L1937.67,611.262 Z M1761.71,535.416 C1761.71,537.625 1759.92,539.416 1757.71,539.416 L1725.67,539.416 L1707.77,539.416 L1693.86,539.416 C1691.66,539.416 1689.86,537.625 1689.86,535.416 L1689.86,525.512 C1689.86,523.303 1691.66,521.512 1693.86,521.512 L1707.77,521.512 L1721.67,521.512 C1723.88,521.512 1725.67,519.721 1725.67,517.512 L1725.67,507.608 C1725.67,505.399 1727.46,503.608 1729.67,503.608 L1757.71,503.608 C1759.92,503.608 1761.71,505.399 1761.71,507.608 L1761.71,535.416 Z M1977.48,355.458 C1977.48,357.667 1975.69,359.458 1973.48,359.458 L1945.44,359.458 C1943.23,359.458 1941.44,357.667 1941.44,355.458 L1941.44,327.65 C1941.44,325.441 1939.65,323.65 1937.44,323.65 L1905.4,323.65 L1869.36,323.65 L1837.33,323.65 C1835.12,323.65 1833.33,321.859 1833.33,319.65 L1833.33,291.612 C1833.33,289.403 1831.54,287.612 1829.33,287.612 L1797.29,287.612 L1765.25,287.612 C1763.04,287.612 1761.25,289.403 1761.25,291.612 L1761.25,319.65 C1761.25,321.859 1759.46,323.65 1757.25,323.65 L1725.21,323.65 L1689.18,323.65 L1653.14,323.65 L1635.23,323.65 L1617.33,323.65 L1603.43,323.65 C1601.22,323.65 1599.43,321.859 1599.43,319.65 L1599.43,309.746 C1599.43,307.536 1601.22,305.746 1603.43,305.746 L1617.33,305.746 L1635.23,305.746 L1649.14,305.746 C1651.35,305.746 1653.14,303.955 1653.14,301.746 L1653.14,291.842 C1653.14,289.632 1654.93,287.842 1657.14,287.842 L1689.18,287.842 L1725.21,287.842 L1757.25,287.842 C1759.46,287.842 1761.25,286.051 1761.25,283.842 L1761.25,255.804 C1761.25,253.595 1763.04,251.804 1765.25,251.804 L1797.29,251.804 L1829.33,251.804 C1831.54,251.804 1833.33,253.595 1833.33,255.804 L1833.33,283.842 C1833.33,286.051 1835.12,287.842 1837.33,287.842 L1869.36,287.842 L1905.4,287.842 L1937.44,287.842 C1939.65,287.842 1941.44,289.632 1941.44,291.842 L1941.44,319.65 C1941.44,321.859 1943.23,323.65 1945.44,323.65 L1973.48,323.65 C1975.69,323.65 1977.48,325.441 1977.48,327.65 L1977.48,355.458 Z M1977.48,179.844 C1977.48,179.78 1977.43,179.729 1977.36,179.729 L1945.44,179.729 C1943.23,179.729 1941.44,177.938 1941.44,175.729 L1941.44,147.921 C1941.44,145.712 1939.65,143.921 1937.44,143.921 L1909.4,143.921 C1907.19,143.921 1905.4,145.712 1905.4,147.921 L1905.4,175.958 C1905.4,178.168 1903.61,179.958 1901.4,179.958 L1873.36,179.958 C1871.15,179.958 1869.36,178.168 1869.36,175.958 L1869.36,147.921 C1869.36,145.712 1871.15,143.921 1873.36,143.921 L1901.4,143.921 C1903.61,143.921 1905.4,142.13 1905.4,139.921 L1905.4,111.883 C1905.4,109.674 1907.19,107.883 1909.4,107.883 L1937.44,107.883 C1939.65,107.883 1941.44,109.674 1941.44,111.883 L1941.44,139.921 C1941.44,142.13 1943.23,143.921 1945.44,143.921 L1977.48,143.921 L2009.51,143.921 C2011.72,143.921 2013.51,145.712 2013.51,147.921 L2013.51,175.958 C2013.51,178.168 2011.72,179.958 2009.51,179.958 L1977.59,179.958 C1977.53,179.958 1977.48,179.907 1977.48,179.844 Z M2085.36,175.729 C2085.36,177.938 2083.57,179.729 2081.36,179.729 L2053.32,179.729 C2051.11,179.729 2049.32,177.938 2049.32,175.729 L2049.32,147.921 C2049.32,145.712 2051.11,143.921 2053.32,143.921 L2081.36,143.921 C2083.57,143.921 2085.36,145.712 2085.36,147.921 L2085.36,175.729 Z M2484.86,143.921 C2482.65,143.921 2480.86,142.13 2480.86,139.921 L2480.86,111.883 C2480.86,109.674 2482.65,107.883 2484.86,107.883 L2512.89,107.883 C2515.1,107.883 2516.89,109.674 2516.89,111.883 L2516.89,139.921 C2516.89,142.13 2515.1,143.921 2512.89,143.921 L2484.86,143.921 Z M1474.1,36.0376 L1506.14,36.0376 C1508.34,36.0376 1510.14,37.8284 1510.14,40.0376 L1510.14,68.0752 C1510.14,70.2843 1511.93,72.0752 1514.14,72.0752 L1542.17,72.0752 C1544.38,72.0752 1546.17,73.866 1546.17,76.0752 L1546.17,103.883 C1546.17,106.092 1544.38,107.883 1542.17,107.883 L1510.14,107.883 L1478.1,107.883 C1475.89,107.883 1474.1,106.092 1474.1,103.883 L1474.1,75.8456 C1474.1,73.6365 1472.31,71.8456 1470.1,71.8456 L1442.06,71.8456 C1439.85,71.8456 1438.06,70.0548 1438.06,67.8456 L1438.06,40.0376 C1438.06,37.8284 1439.85,36.0376 1442.06,36.0376 L1474.1,36.0376 Z M1258.33,75.8456 C1258.33,73.6365 1260.12,71.8456 1262.33,71.8456 L1290.37,71.8456 C1292.58,71.8456 1294.37,70.0548 1294.37,67.8456 L1294.37,40.0376 C1294.37,37.8284 1296.16,36.0376 1298.37,36.0376 L1330.41,36.0376 L1366.44,36.0376 L1398.48,36.0376 C1400.69,36.0376 1402.48,37.8284 1402.48,40.0376 L1402.48,68.0752 C1402.48,70.2843 1400.69,72.0752 1398.48,72.0752 L1366.44,72.0752 L1330.41,72.0752 L1298.37,72.0752 C1296.16,72.0752 1294.37,73.866 1294.37,76.0752 L1294.37,103.883 C1294.37,106.092 1292.58,107.883 1290.37,107.883 L1262.33,107.883 C1260.12,107.883 1258.33,106.092 1258.33,103.883 L1258.33,75.8456 Z M1186.49,255.574 C1186.49,253.365 1188.28,251.574 1190.49,251.574 L1222.52,251.574 L1258.56,251.574 L1290.6,251.574 C1292.81,251.574 1294.6,253.365 1294.6,255.574 L1294.6,283.612 C1294.6,285.821 1292.81,287.612 1290.6,287.612 L1258.56,287.612 L1222.52,287.612 L1190.49,287.612 C1188.28,287.612 1186.49,285.821 1186.49,283.612 L1186.49,255.574 Z M1406.25,395.495 C1404.04,395.495 1402.25,393.704 1402.25,391.495 L1402.25,363.458 C1402.25,361.249 1404.04,359.458 1406.25,359.458 L1434.29,359.458 C1436.5,359.458 1438.29,361.249 1438.29,363.458 L1438.29,391.495 C1438.29,393.704 1436.5,395.495 1434.29,395.495 L1406.25,395.495 Z M934.911,754.953 L934.911,722.915 C934.911,720.706 936.702,718.915 938.911,718.915 L970.949,718.915 L1006.99,718.915 L1039.02,718.915 C1041.23,718.915 1043.02,717.125 1043.02,714.915 L1043.02,686.878 C1043.02,684.669 1044.81,682.878 1047.02,682.878 L1079.06,682.878 L1115.1,682.878 L1151.14,682.878 L1183.17,682.878 C1185.38,682.878 1187.17,681.087 1187.17,678.878 L1187.17,651.299 C1187.17,649.09 1188.97,647.299 1191.17,647.299 L1223.21,647.299 L1259.25,647.299 L1291.29,647.299 C1293.5,647.299 1295.29,645.508 1295.29,643.299 L1295.29,615.262 C1295.29,613.053 1297.08,611.262 1299.29,611.262 L1331.32,611.262 L1367.36,611.262 L1399.4,611.262 C1401.61,611.262 1403.4,613.053 1403.4,615.262 L1403.4,643.299 C1403.4,645.508 1401.61,647.299 1399.4,647.299 L1367.36,647.299 L1331.32,647.299 L1299.29,647.299 C1297.08,647.299 1295.29,649.09 1295.29,651.299 L1295.29,679.337 C1295.29,681.546 1293.5,683.337 1291.29,683.337 L1259.25,683.337 L1223.21,683.337 L1191.17,683.337 C1188.97,683.337 1187.17,685.128 1187.17,687.337 L1187.17,715.375 C1187.17,717.584 1185.38,719.375 1183.17,719.375 L1151.14,719.375 L1115.1,719.375 L1079.06,719.375 L1047.02,719.375 C1044.81,719.375 1043.02,721.165 1043.02,723.375 L1043.02,751.412 C1043.02,753.621 1041.23,755.412 1039.02,755.412 L1006.99,755.412 L970.949,755.412 L935.37,755.412 C935.117,755.412 934.911,755.207 934.911,754.953 Z M1402.25,831.028 C1402.25,828.819 1404.04,827.028 1406.25,827.028 L1438.29,827.028 L1452.19,827.028 C1454.4,827.028 1456.19,828.819 1456.19,831.028 L1456.19,840.932 C1456.19,843.141 1454.4,844.932 1452.19,844.932 L1442.29,844.932 C1440.08,844.932 1438.29,846.723 1438.29,848.932 L1438.29,858.836 C1438.29,861.045 1436.5,862.836 1434.29,862.836 L1406.25,862.836 C1404.04,862.836 1402.25,861.045 1402.25,858.836 L1402.25,831.028 Z M1510.14,974.719 C1510.14,972.51 1511.93,970.719 1514.14,970.719 L1546.17,970.719 L1560.08,970.719 C1562.29,970.719 1564.08,972.51 1564.08,974.719 L1564.08,984.624 C1564.08,986.833 1562.29,988.624 1560.08,988.624 L1550.17,988.624 C1547.96,988.624 1546.17,990.414 1546.17,992.624 L1546.17,1002.53 C1546.17,1004.74 1544.38,1006.53 1542.17,1006.53 L1514.14,1006.53 C1511.93,1006.53 1510.14,1004.74 1510.14,1002.53 L1510.14,974.719 Z M1442.29,1114.64 C1440.08,1114.64 1438.29,1112.85 1438.29,1110.64 L1438.29,1082.6 C1438.29,1080.39 1440.08,1078.6 1442.29,1078.6 L1470.33,1078.6 C1472.54,1078.6 1474.33,1080.39 1474.33,1082.6 L1474.33,1110.64 C1474.33,1112.85 1472.54,1114.64 1470.33,1114.64 L1442.29,1114.64 Z M1581.98,1186.37 C1581.98,1186.43 1581.93,1186.49 1581.87,1186.49 L1549.94,1186.49 C1547.73,1186.49 1545.94,1184.7 1545.94,1182.49 L1545.94,1154.45 C1545.94,1152.24 1547.73,1150.45 1549.94,1150.45 L1577.98,1150.45 C1580.19,1150.45 1581.98,1152.24 1581.98,1154.45 L1581.98,1164.35 C1581.98,1166.56 1583.77,1168.35 1585.98,1168.35 L1595.89,1168.35 C1598.09,1168.35 1599.89,1170.14 1599.89,1172.35 L1599.89,1182.26 C1599.89,1184.47 1598.09,1186.26 1595.89,1186.26 L1582.1,1186.26 C1582.03,1186.26 1581.98,1186.31 1581.98,1186.37 Z M1618.02,1172.58 C1618.02,1170.37 1619.81,1168.58 1622.02,1168.58 L1631.92,1168.58 C1634.13,1168.58 1635.92,1170.37 1635.92,1172.58 L1635.92,1182.49 C1635.92,1184.7 1634.13,1186.49 1631.92,1186.49 L1622.02,1186.49 C1619.81,1186.49 1618.02,1184.7 1618.02,1182.49 L1618.02,1172.58 Z M1833.79,1110.64 C1833.79,1112.85 1831.99,1114.64 1829.79,1114.64 L1797.75,1114.64 L1783.84,1114.64 C1781.63,1114.64 1779.84,1112.85 1779.84,1110.64 L1779.84,1100.74 C1779.84,1098.53 1781.63,1096.74 1783.84,1096.74 L1793.75,1096.74 C1795.96,1096.74 1797.75,1094.95 1797.75,1092.74 L1797.75,1082.83 C1797.75,1080.62 1799.54,1078.83 1801.75,1078.83 L1829.79,1078.83 C1831.99,1078.83 1833.79,1080.62 1833.79,1082.83 L1833.79,1110.64 Z M1761.71,966.719 C1761.71,968.929 1759.92,970.719 1757.71,970.719 L1725.67,970.719 L1711.77,970.719 C1709.56,970.719 1707.77,968.929 1707.77,966.719 L1707.77,956.815 C1707.77,954.606 1709.56,952.815 1711.77,952.815 L1721.67,952.815 C1723.88,952.815 1725.67,951.025 1725.67,948.815 L1725.67,938.911 C1725.67,936.702 1727.46,934.911 1729.67,934.911 L1757.71,934.911 C1759.92,934.911 1761.71,936.702 1761.71,938.911 L1761.71,966.719 Z M1977.48,858.836 C1977.48,861.045 1975.69,862.836 1973.48,862.836 L1941.44,862.836 L1923.53,862.836 L1909.63,862.836 C1907.42,862.836 1905.63,861.045 1905.63,858.836 L1905.63,848.932 C1905.63,846.723 1907.42,844.932 1909.63,844.932 L1923.53,844.932 L1937.44,844.932 C1939.65,844.932 1941.44,843.141 1941.44,840.932 L1941.44,831.028 C1941.44,828.819 1943.23,827.028 1945.44,827.028 L1973.48,827.028 C1975.69,827.028 1977.48,828.819 1977.48,831.028 L1977.48,858.836 Z M2085.36,786.991 C2085.36,789.2 2083.57,790.991 2081.36,790.991 L2049.32,790.991 L2017.28,790.991 C2015.08,790.991 2013.28,789.2 2013.28,786.991 L2013.28,758.953 C2013.28,756.744 2011.49,754.953 2009.28,754.953 L1977.25,754.953 L1941.21,754.953 L1909.17,754.953 C1906.96,754.953 1905.17,753.162 1905.17,750.953 L1905.17,722.915 C1905.17,720.706 1906.96,718.915 1909.17,718.915 L1941.21,718.915 L1977.25,718.915 L2009.28,718.915 C2011.49,718.915 2013.28,720.706 2013.28,722.915 L2013.28,750.953 C2013.28,753.162 2015.08,754.953 2017.28,754.953 L2049.32,754.953 L2081.36,754.953 C2083.57,754.953 2085.36,756.744 2085.36,758.953 L2085.36,786.991 Z"/>
    </g>
  </g>
</svg>