<?xml version="1.0"?>
<svg xmlns="http://www.w3.org/2000/svg" width="42" height="39" viewBox="0 0 42 39">
  <defs>
    <linearGradient id="resource-metrics-icon-a" x1="44.396%" x2="59.956%" y1="25.78%" y2="85.985%">
      <stop offset="0%" stop-color="#0069FF" stop-opacity=".4"/>
      <stop offset="100%" stop-color="#0069FF" stop-opacity="0"/>
    </linearGradient>
  </defs>
  <g fill="none" fill-rule="evenodd" transform="translate(1 1)">
    <path stroke="#0069FF" stroke-width="2" d="M33.9,2.23 L3.3,2.23 C1.48424888,2.24628574 0.016285743,3.71424888 0,5.53 L0,33.63 C0.016285743,35.4457511 1.48424888,36.9137143 3.3,36.93 L33.9,36.93 C35.7157511,36.9137143 37.1837143,35.4457511 37.2,33.63 L37.2,5.53 C37.1837143,3.71424888 35.7157511,2.24628574 33.9,2.23 Z"/>
    <path stroke="#0069FF" stroke-width="2" d="M37.2,25.23 L0,25.23 M37.2,13.23 L0,13.23" opacity=".3"/>
    <path fill="url(#resource-metrics-icon-a)" d="M37.4,37 L37.4,2.43 L27.6,16.83 C27.2020893,17.4430774 26.5694459,17.8654159 25.850652,17.9978253 C25.1318582,18.1302347 24.3902496,17.9610479 23.8,17.53 L19.9,14.83 C18.7215821,14.0204545 17.1212782,14.2367118 16.2,15.33 L0.8,33.43 C0.28157256,34.0482525 0.169623494,34.9113953 0.513176848,35.6414462 C0.856730202,36.3714971 1.59317037,36.8353979 2.4,36.83 L37.4,37 Z"/>
    <path stroke="#120078" stroke-width="2" d="M10,22.63 L15.7,16 C16.8498553,14.5111534 18.972831,14.2015528 20.5,15.3 L23.1,17.1 C24.7373947,18.1939313 26.9468347,17.7962321 28.1,16.2 L35.3,5.5"/>
    <path fill="#FFF" fill-rule="nonzero" stroke="#120078" stroke-width="2" d="M34.3,3.93 C34.1522423,3.28858007 34.2710099,2.6146578 34.629135,2.06239128 C34.98726,1.51012476 35.554103,1.12676334 36.2,1 C37.5127939,0.831641498 38.733487,1.70356514 39,3 C39.1154129,3.63772042 38.9680125,4.29500989 38.5913238,4.82237414 C38.214635,5.34973839 37.6406802,5.70234611 37,5.8 C35.741493,6.01340976 34.5427603,5.18317641 34.3,3.93 Z M5.8,25.13 C5.55572315,23.8330115 6.40451975,22.5821533 7.7,22.33 C8.98987707,22.1189259 10.2196199,22.9533943 10.5,24.23 C10.6282502,24.8506676 10.4981307,25.4967984 10.1396372,26.0194443 C9.78114359,26.5420901 9.2252129,26.8961483 8.6,27 C7.31946179,27.2130875 6.09373577,26.3944776 5.8,25.13 Z"/>
  </g>
</svg>
