<svg xmlns="http://www.w3.org/2000/svg" width="19" height="18" viewBox="0 0 19 18" fill="none" aria-hidden="true">
    <path fill-rule="evenodd" clip-rule="evenodd" d="M9.22764 0C4.12937 0 0 4.12937 0 9.22764C0 13.3109 2.64141 16.7597 6.3094 17.9824C6.77078 18.0631 6.9438 17.7863 6.9438 17.5441C6.9438 17.3249 6.93227 16.5982 6.93227 15.8254C4.61382 16.2522 4.01403 15.2602 3.82947 14.7412C3.72566 14.4759 3.27581 13.6569 2.88364 13.4378C2.56067 13.2647 2.09929 12.838 2.8721 12.8264C3.59878 12.8149 4.11784 13.4954 4.29085 13.7723C5.12134 15.1679 6.44782 14.7758 6.97841 14.5335C7.05915 13.9337 7.30137 13.53 7.56667 13.2993C5.51352 13.0687 3.36809 12.2728 3.36809 8.74319C3.36809 7.73969 3.72566 6.9092 4.31392 6.26326C4.22165 6.03257 3.89868 5.08674 4.4062 3.81794C4.4062 3.81794 5.17902 3.57571 6.9438 4.76377C7.68201 4.55615 8.46636 4.45234 9.25071 4.45234C10.0351 4.45234 10.8194 4.55615 11.5576 4.76377C13.3224 3.56418 14.0952 3.81794 14.0952 3.81794C14.6027 5.08674 14.2798 6.03257 14.1875 6.26326C14.7758 6.9092 15.1333 7.72815 15.1333 8.74319C15.1333 12.2843 12.9764 13.0687 10.9232 13.2993C11.2577 13.5877 11.5461 14.1414 11.5461 15.0065C11.5461 16.2407 11.5346 17.2326 11.5346 17.5441C11.5346 17.7863 11.7076 18.0746 12.169 17.9824C14.0008 17.364 15.5926 16.1866 16.7203 14.6162C17.848 13.0457 18.4548 11.1611 18.4553 9.22764C18.4553 4.12937 14.3259 0 9.22764 0Z" fill="#99A1B3"></path>
</svg>